<?xml version="1.0" encoding="utf-8"?>
<!-- Generator: Adobe Illustrator 20.1.0, SVG Export Plug-In . SVG Version: 6.00 Build 0)  -->
<svg version="1.1" id="Camada_1" xmlns="http://www.w3.org/2000/svg" xmlns:xlink="http://www.w3.org/1999/xlink" x="0px" y="0px"
	 viewBox="0 0 100 100" style="enable-background:new 0 0 100 100;" xml:space="preserve">
<style type="text/css">
	.st0{fill:#E94849;}
	.st1{fill:#C43E3D;}
	.st2{fill:none;}
	.st3{fill:#D3D3D3;}
	.st4{fill:#FFFFFF;}
	.st5{fill:#FDCB5A;}
	.st6{opacity:0.8;fill:#EAEAEA;}
	.st7{fill:#343433;}
	.st8{fill:#555454;}
</style>
<g>
	<path class="st0" d="M48,1.3C22.2,1.9,1.3,23.1,0.9,48.9C0.7,62.1,5.8,74.1,14.2,82.9l-0.1-50.8l4.6,0l0-4.6l30,0
		c0.2-0.3,0.3-0.5,0.5-0.8v-1.2l0.8,2l3.4,0c9.7,0,12-0.4,18.6,4.7l1.3,1.9v2c3.3,4.9,10.6,1.4,8.7,6.8c-0.2,1.1-0.4,2.2-0.8,3.3
		c0.4,0.5,0.7,1.1,0.9,1.7L96,61.8c1-3.9,1.5-7.9,1.5-12.1C97.5,22.6,75.2,0.7,48,1.3z"/>
	<path class="st1" d="M90.4,68.4L90,68c0,0,0,0-0.1-0.1l-0.4,0.4l-14-14c-0.8-0.2-1.5-0.7-2.2-1.3L73.3,53c-6,3.2-13.4,2.8-19-1h0
		c-0.9-0.6-1.8-1.4-2.6-2.2C51,49.2,50.5,48.6,50,48v0c-3.1-4.1-4.3-9.2-3.6-14c-2,5.7-1.1,12.3,2.8,17.3v0c0.5,0.6,1,1.2,1.6,1.8
		c0.8,0.8,1.7,1.6,2.7,2.2h0c5.7,3.9,13,4.2,19,1l0.1,0.1c0.6,0.6,1.3,1,2.1,1.2l14,14l0.4-0.4c0,0,0,0,0,0.1l0.3,0.3
		c0.6,0.6,1.3,0.9,2.1,1c0.6-1.1,1.1-2.2,1.6-3.3C92.2,69.5,91.2,69.1,90.4,68.4z"/>
	<circle class="st2" cx="49.2" cy="49.7" r="44.6"/>
	<path class="st1" d="M49.2,51.3v4h4.2c5.7,3.9,13,4.2,19,1l0.1,0.1c0.6,0.6,1.3,1,2.1,1.2l3.1,3.1l0-25.6l-31.8,0
		C44.5,40.7,45.6,46.6,49.2,51.3z"/>
	<path class="st0" d="M91.6,72.7c-0.8-0.1-1.5-0.5-2.1-1l-0.3-0.3c0,0,0,0,0-0.1l-0.4,0.4l-11-11l0,27.7
		C83.5,84.3,88.2,79,91.6,72.7z"/>
	<path class="st1" d="M77.8,88.5l0-27.7l-3.1-3.1c-0.3-0.1-0.6-0.2-0.9-0.4l0,33.8C75.2,90.3,76.5,89.5,77.8,88.5z"/>
	<path class="st3" d="M46,35.3c-1.5,5.4-0.4,11.4,3.2,16v4h4.2c5.7,3.9,13,4.2,19,1l0.1,0.1c0.4,0.4,0.8,0.6,1.2,0.9l0-29.9l-25,0
		c-1.2,2-2,4.3-2.3,6.6C46.2,34.4,46.1,34.8,46,35.3z"/>
	<path class="st3" d="M73.8,91.2l0-33.8c-0.4-0.2-0.8-0.5-1.2-0.9l-0.1-0.1c-1.1,0.6-2.2,1-3.3,1.4l0.1,35.9
		C70.8,92.9,72.3,92.1,73.8,91.2z"/>
	<path class="st3" d="M48.7,27.4l-30,0l0,4.6l28,0C47.2,30.4,47.8,28.9,48.7,27.4z"/>
	<polygon class="st4" points="18.7,32.1 18.8,87.2 18.7,32.1 	"/>
	<path class="st4" d="M46,35.3c-1.5,5.4-0.4,11.4,3.2,16v4h4.2c4.7,3.2,10.5,4,15.7,2.4l0-25.7l-22.3,0c-0.2,0.6-0.3,1.3-0.4,1.9
		C46.2,34.4,46.1,34.8,46,35.3z"/>
	<path class="st4" d="M22.7,35.3l23.2,0c0.1-0.4,0.2-0.9,0.4-1.3c0.1-0.6,0.2-1.3,0.4-1.9l-28,0l0.1,55.1c1.3,1,2.6,2,4,2.9
		L22.7,35.3z"/>
	<path class="st4" d="M14.2,82.9c1.5,1.5,3,3,4.6,4.3l-0.1-55.1l-4.6,0L14.2,82.9z"/>
	<path class="st4" d="M53.4,55.3h-4.2v-4c-3.6-4.6-4.6-10.6-3.2-16l-23.2,0l0.1,54.8c7.6,5,16.6,7.8,26.4,7.8c7.1,0,13.9-1.6,20-4.3
		l-0.1-35.9C63.9,59.3,58.1,58.5,53.4,55.3z"/>
	<path class="st3" d="M63,51.2c0,5.4-4.4,9.7-9.7,9.7H31.3c-5.4,0-9.7-4.4-9.7-9.7l0,0c0-5.4,4.4-9.7,9.7-9.7h21.9
		C58.7,41.5,63,45.8,63,51.2L63,51.2z"/>
	<rect x="23.5" y="69" class="st3" width="36.8" height="6.7"/>
	<rect x="23.5" y="81.4" class="st3" width="36.8" height="6.7"/>
	<g>
		<path class="st4" d="M31.8,57.3c1.7-3,2.6-6.9,3.5-10.2c-0.9,0-1.8,0-2.7,0c1.7,5.3,3.3,10.6,5.3,15.8c0.4,1.2,2.4,1.5,2.7,0
			c1.4-7.7,3-15.3,4.6-22.9c-0.9,0-1.8,0-2.7,0c1.7,8.2,2.4,16.6,4.3,24.7c0.3,1.1,2.1,1.5,2.5,0.3c2.2-5.1,4.1-10.3,6-15.5
			c0.6-1.7-2.1-2.4-2.7-0.7c-1.8,5-3.7,9.9-5.7,14.8c0.8,0.1,1.7,0.2,2.5,0.3c-1.9-8.2-2.6-16.5-4.3-24.7c-0.3-1.3-2.4-1.3-2.7,0
			c-1.6,7.6-3.3,15.2-4.6,22.9c0.9,0,1.8,0,2.7,0c-1.9-5.2-3.5-10.5-5.3-15.8c-0.4-1.3-2.3-1.4-2.7,0c-0.8,3.1-1.7,6.8-3.3,9.6
			C28.5,57.5,30.9,58.9,31.8,57.3L31.8,57.3z"/>
	</g>
	<path class="st5" d="M95.7,62.4L95.7,62.4c0.1-0.1,0.1-0.2,0.1-0.3L95.7,62.4C95.7,62.4,95.7,62.4,95.7,62.4z"/>
	<path class="st2" d="M49.2,28.8v-2.2c-1.5,2.3-2.4,4.8-2.8,7.3C47,32.2,47.9,30.4,49.2,28.8z"/>
	<path class="st0" d="M80.7,45.7L80.7,45.7c0.2,0.2,0.3,0.3,0.4,0.5c0.4-1.1,0.7-2.2,0.8-3.3C81.6,43.8,81.2,44.8,80.7,45.7z"/>
	<path class="st0" d="M49.2,26.6c0.3-0.4,0.5-0.8,0.8-1.2v0h-0.8V26.6z"/>
	<path class="st6" d="M73.4,45.5c0.8-0.8,1.8-1.3,2.8-1.4c3.4-5.3,2.8-12.5-1.9-17.1c-5.4-5.4-14.1-5.4-19.5,0
		c-5.4,5.4-5.4,14.1,0,19.5c4.6,4.6,11.6,5.2,16.9,2c0.2-1,0.6-2,1.4-2.7L73.4,45.5z"/>
	<path class="st7" d="M95.7,62.4C95.7,62.4,95.7,62.4,95.7,62.4L90,68c0,0,0,0,0.1,0.1l0.3,0.3c0.8,0.8,1.8,1.1,2.9,1.1
		C94.2,67.2,95.1,64.9,95.7,62.4L95.7,62.4z"/>
	<g>
		<path class="st8" d="M53.4,22.1h22.5C69.2,17,60,17,53.4,22.1z"/>
		<path class="st8" d="M79.9,26.4c-0.7-0.9-1.4-1.8-2.2-2.7c-0.6-0.6-1.2-1.1-1.8-1.6H53.4c-0.6,0.5-1.2,1-1.8,1.6
			c-0.6,0.6-1.1,1.2-1.6,1.8V48c0.5,0.6,1,1.2,1.6,1.8c0.8,0.8,1.7,1.6,2.7,2.2h0c5.7,3.9,13,4.2,19,1l-0.1-0.1
			c-0.3-0.3-0.5-0.6-0.7-0.9c-0.2-0.3-0.4-0.7-0.5-1.1c-0.3-0.8-0.3-1.6-0.2-2.4c-5.3,3.2-12.3,2.6-16.9-2c-5.4-5.4-5.4-14.1,0-19.5
			c5.4-5.4,14.1-5.4,19.5,0c4.6,4.6,5.3,11.8,1.9,17.1c0.8-0.1,1.7,0,2.4,0.2c0.4,0.1,0.8,0.3,1.2,0.6c0.3,0.2,0.5,0.4,0.7,0.6
			l0.1,0.1C84.1,39.6,83.8,32.1,79.9,26.4z M61.8,52L61.8,52c-0.7-0.2-1.3-0.4-1.9-0.6C60.5,51.6,61.1,51.8,61.8,52z M58.5,50.8
			c-0.4-0.2-0.9-0.5-1.3-0.8C57.6,50.3,58.1,50.5,58.5,50.8z M55.2,48.4c-0.1-0.1-0.2-0.2-0.4-0.4c0,0,0,0,0,0
			C55,48.2,55.1,48.3,55.2,48.4z"/>
	</g>
	<path class="st8" d="M50,25.5V48C44.9,41.4,44.9,32.1,50,25.5z"/>
	<path class="st8" d="M80.8,52.9l-0.2,0.2c-1.4,1.4-3.3,1.8-5,1.3l14,14L90,68c-1.4-1.5-1.4-3.8,0.1-5.3l0.3-0.3
		c1.5-1.5,3.8-1.5,5.3-0.1l0.2-0.2c0-0.1,0.1-0.2,0.1-0.4L82.1,47.9C82.6,49.6,82.2,51.5,80.8,52.9z"/>
	<path class="st8" d="M90.4,62.4L90,62.7c-1.5,1.5-1.5,3.8-0.1,5.3l5.6-5.6C94.2,60.9,91.8,60.9,90.4,62.4z"/>
	<path class="st7" d="M82.1,47.9l-0.5-0.5L82.1,47.9c-0.2-0.8-0.7-1.5-1.3-2.2l-0.1-0.1l-0.1-0.1c-0.2-0.2-0.5-0.4-0.7-0.6v2.2v0.6
		v0v-0.6v-2.2c-0.4-0.3-0.8-0.5-1.2-0.6C77.9,44,77,44,76.2,44.1c-1,0.2-2,0.6-2.8,1.4l-0.2,0.2c-0.8,0.8-1.2,1.7-1.4,2.7
		c-0.1,0.8-0.1,1.7,0.2,2.4c0.1,0.4,0.3,0.7,0.5,1.1c0.2,0.3,0.4,0.7,0.7,0.9l0.1,0.1l0.1,0.1c0.6,0.6,1.4,1,2.2,1.3
		c1.7,0.5,3.7,0.1,5-1.3l0.2-0.2C82.2,51.5,82.6,49.6,82.1,47.9z M80.6,46.9l0.2-0.2v0L80.6,46.9z"/>
	<g>
		<path class="st0" d="M50,100C22.4,100,0,77.6,0,50S22.4,0,50,0c27.6,0,50,22.4,50,50S77.6,100,50,100z M50,3.4
			C24.3,3.4,3.4,24.3,3.4,50S24.3,96.6,50,96.6c25.7,0,46.6-20.9,46.6-46.6S75.7,3.4,50,3.4z"/>
	</g>
</g>
</svg>
