<?xml version="1.0" encoding="utf-8"?>
<!-- Generator: Adobe Illustrator 20.1.0, SVG Export Plug-In . SVG Version: 6.00 Build 0)  -->
<svg version="1.1" id="Camada_1" xmlns="http://www.w3.org/2000/svg" xmlns:xlink="http://www.w3.org/1999/xlink" x="0px" y="0px"
	 viewBox="0 0 100 100" style="enable-background:new 0 0 100 100;" xml:space="preserve">
<style type="text/css">
	.st0{fill:#C43E3D;}
	.st1{fill:#E94849;}
	.st2{fill:#FFFFFF;}
	.st3{fill:#E2E1E1;}
	.st4{fill:#3C3C3B;}
	.st5{fill:#343433;}
	.st6{fill:#555454;}
</style>
<g>
	<path class="st0" d="M95.8,56.2L81.7,34.9l0.4,49.9c1.7-0.8,1.6-0.8,3-1.8c4.7-5,8.3-10.9,10.5-17.5C96.5,60.3,95.8,56.2,95.8,56.2
		z"/>
	<path class="st1" d="M98.2,50c0-26.7-21.6-48.3-48.3-48.3C23.2,1.7,1.6,23.3,1.6,50c0,14.4,6.3,27.2,16.2,36.1l-0.1-48.2
		c0-5.8,5.3-9.7,11.5-9.7l42.7-0.1c5.1,0,8.6,2.7,9.7,6.8l0,0l14.1,21.3c0,0,0.6,4.1-0.2,9.4C97.3,60.7,98.2,55.5,98.2,50z"/>
	<g>
		<defs>
			<circle id="SVGID_1_" cx="49.9" cy="50.1" r="44.6"/>
		</defs>
		<clipPath id="SVGID_2_">
			<use xlink:href="#SVGID_1_"  style="overflow:visible;"/>
		</clipPath>
	</g>
	<path class="st1" d="M85.1,83.1c-0.9,0.6-1.9,1.2-3,1.8l0,1.1C83.1,85,84.1,84.1,85.1,83.1z"/>
	<path class="st2" d="M49.9,98.3c3,0,6-0.3,8.8-0.8H41C43.9,98,46.8,98.3,49.9,98.3z"/>
	<path class="st2" d="M69.8,84.6V94c2.4-1.1,4.6-2.3,6.8-3.8l-0.1-54.6L24,35.7L24,90.8c2.1,1.3,4.3,2.5,6.7,3.5v-9.7H69.8z"/>
	<path class="st3" d="M69.8,84.6H30.7v9.7c3.3,1.4,6.7,2.5,10.3,3.2h17.7c3.9-0.7,7.6-1.9,11.1-3.5V84.6z"/>
	<path class="st4" d="M76.5,35.6l0.1,54.6c1.9-1.3,3.8-2.7,5.5-4.3l0-1.1c-0.5,0.3,0.6-0.3,0,0l-0.4-49.9c-1.1-4.2-4.7-6.8-9.7-6.8
		l-42.7,0.1c-6.2,0-11.5,3.9-11.5,9.7l0.1,48.2c1.9,1.7,4,3.3,6.3,4.7L24,35.7L76.5,35.6z"/>
	<path class="st3" d="M39,48.3c0,2.8-2.2,5-5,5c-2.8,0-5-2.2-5-5c0-2.8,2.2-5,5-5C36.7,43.3,38.9,45.5,39,48.3"/>
	<path class="st3" d="M39,61.5c0,2.8-2.2,5-5,5c-2.8,0-5-2.2-5-5c0-2.8,2.2-5,5-5C36.7,56.5,39,58.8,39,61.5"/>
	<path class="st3" d="M39,75.1c0,2.8-2.2,5-5,5c-2.8,0-5-2.2-5-5c0-2.8,2.2-5,5-5C36.7,70.1,39,72.3,39,75.1"/>
	<path class="st5" d="M58.6,23.8c-1.8-1.9-5-4.6-8.6-4.6c-3.6,0-6.7,2.7-8.6,4.6l-6.4,0l0,14.4h30.6l0-14.4L58.6,23.8z"/>
	<path class="st2" d="M52.5,24.6c0,1.2-0.9,2.1-2.1,2.1c-1.2,0-2.1-0.9-2.1-2.1c0-1.2,0.9-2.1,2.1-2.1
		C51.5,22.5,52.5,23.4,52.5,24.6"/>
	<rect x="43" y="45.1" class="st3" width="26.9" height="5.5"/>
	<rect x="43" y="58.8" class="st3" width="26.9" height="5.5"/>
	<rect x="43" y="72.4" class="st3" width="26.9" height="5.5"/>
	<g>
		<path class="st1" d="M36.5,43.4C36.5,43.4,36.4,43.3,36.5,43.4C36.4,43.3,36.5,43.4,36.5,43.4z"/>
		<polygon class="st1" points="36.5,43.8 36.5,43.7 36.5,43.8 		"/>
		<path class="st1" d="M36.3,44c0.1,0.1,0-0.1,0.1-0.1l0,0l-0.1-0.1C36.4,43.9,36.4,44,36.3,44z"/>
		<path class="st1" d="M36,44C36,44,36,44.1,36,44C36,44,36,44,36,44C36,44,36,44,36,44z"/>
		<path class="st1" d="M36,44C36,43.9,35.9,44,36,44L36,44z"/>
		<path class="st1" d="M35.9,44.1L35.9,44.1C35.9,44,35.8,44.1,35.9,44.1C35.8,44.1,35.9,44.1,35.9,44.1z"/>
		<path class="st1" d="M36,44.2L36,44.2C36,44.2,36,44.2,36,44.2z"/>
		<path class="st1" d="M36,44.1L36,44.1C36,44.2,36.1,44.2,36,44.1C36,44.2,36,44.1,36,44.1z"/>
		<path class="st1" d="M36,44.1C36,44.1,36.1,44.1,36,44.1C36.1,44.1,36,44,36,44.1z"/>
		<path class="st1" d="M36.4,44.1L36.4,44.1L36.4,44.1C36.5,44.1,36.4,44.1,36.4,44.1z"/>
		<path class="st1" d="M35.7,44.3c0,0,0.1,0,0.1,0.1l0,0C35.8,44.3,35.7,44.3,35.7,44.3z"/>
		<path class="st1" d="M35.8,44.4L35.8,44.4C35.9,44.4,35.8,44.4,35.8,44.4z"/>
		<polygon class="st1" points="36.1,44.3 36.1,44.2 36.1,44.3 		"/>
		<polygon class="st1" points="35.6,44.4 35.5,44.4 35.6,44.5 		"/>
		<path class="st1" d="M35.5,44.6c0-0.1-0.1,0-0.1-0.1C35.4,44.5,35.4,44.6,35.5,44.6C35.4,44.6,35.5,44.6,35.5,44.6z"/>
		<path class="st1" d="M35.5,44.7C35.5,44.7,35.5,44.6,35.5,44.7C35.5,44.6,35.5,44.7,35.5,44.7z"/>
		<path class="st1" d="M35.8,44.5C35.8,44.5,35.7,44.5,35.8,44.5L35.8,44.5C35.8,44.5,35.8,44.5,35.8,44.5z"/>
		<path class="st1" d="M35.8,44.5L35.8,44.5C35.7,44.5,35.7,44.5,35.8,44.5C35.7,44.5,35.7,44.5,35.8,44.5z"/>
		<path class="st1" d="M35.8,44.5L35.8,44.5C35.8,44.5,35.8,44.5,35.8,44.5z"/>
		<path class="st1" d="M36,44.4c0,0.1,0,0.1,0.1,0.1C36.1,44.4,36,44.5,36,44.4z"/>
		<path class="st1" d="M35.9,44.5L35.9,44.5C35.9,44.5,35.9,44.5,35.9,44.5L35.9,44.5z"/>
		<polygon class="st1" points="35.9,44.6 35.9,44.5 35.9,44.5 		"/>
		<path class="st1" d="M35.6,44.7C35.6,44.7,35.6,44.7,35.6,44.7C35.6,44.7,35.7,44.7,35.6,44.7C35.7,44.7,35.6,44.6,35.6,44.7z"/>
		<path class="st1" d="M35.7,44.6L35.7,44.6C35.7,44.6,35.7,44.6,35.7,44.6z"/>
		<path class="st1" d="M35.4,45C35.5,45,35.5,45,35.4,45L35.4,45L35.4,45z"/>
		<path class="st1" d="M35.7,44.7C35.7,44.7,35.7,44.7,35.7,44.7C35.7,44.7,35.7,44.7,35.7,44.7C35.7,44.7,35.7,44.7,35.7,44.7z"/>
		<path class="st1" d="M35.5,44.8C35.5,44.8,35.5,44.8,35.5,44.8C35.5,44.8,35.5,44.8,35.5,44.8z"/>
		<path class="st1" d="M35.7,44.6C35.7,44.6,35.7,44.6,35.7,44.6C35.6,44.6,35.7,44.6,35.7,44.6z"/>
		<path class="st1" d="M35.7,44.6C35.7,44.6,35.7,44.6,35.7,44.6C35.7,44.6,35.7,44.6,35.7,44.6C35.7,44.6,35.7,44.6,35.7,44.6z"/>
		<path class="st1" d="M35.9,45.4c-0.1-0.1-0.1-0.1,0-0.1c0-0.1-0.3-0.2-0.4-0.3c0,0,0.1,0,0.1,0.1c0,0,0.2,0,0.2,0
			c0,0.1-0.1,0-0.1,0C35.7,45.2,35.7,45.3,35.9,45.4L35.9,45.4C35.8,45.3,35.8,45.4,35.9,45.4z"/>
		<path class="st1" d="M35.5,44.9L35.5,44.9c0,0-0.1,0-0.1,0C35.4,44.9,35.4,45,35.5,44.9L35.5,44.9L35.5,44.9z"/>
		<path class="st1" d="M35.6,44.8c0.1,0.1,0.1,0.1,0.2,0.2c0-0.1,0-0.1,0-0.1C35.7,44.9,35.7,44.8,35.6,44.8
			C35.6,44.8,35.6,44.8,35.6,44.8C35.6,44.8,35.6,44.8,35.6,44.8L35.6,44.8L35.6,44.8L35.6,44.8C35.6,44.8,35.6,44.8,35.6,44.8
			C35.6,44.8,35.6,44.8,35.6,44.8C35.6,44.8,35.6,44.8,35.6,44.8C35.6,44.8,35.6,44.8,35.6,44.8L35.6,44.8L35.6,44.8L35.6,44.8
			C35.6,44.9,35.6,44.9,35.6,44.8z"/>
		<path class="st1" d="M36.3,44.7C36.2,44.7,36.2,44.7,36.3,44.7C36.2,44.7,36.2,44.7,36.3,44.7z"/>
		<path class="st1" d="M36.2,44.7C36.2,44.6,36.2,44.6,36.2,44.7C36.2,44.6,36.2,44.6,36.2,44.7C36.2,44.6,36.2,44.6,36.2,44.7
			L36.2,44.7c-0.1-0.1-0.2-0.1-0.2-0.1C36,44.6,36.1,44.6,36.2,44.7z"/>
		<path class="st1" d="M35.9,44.8L35.9,44.8l0.1,0.1L35.9,44.8C36,44.8,35.9,44.8,35.9,44.8z"/>
		<polygon class="st1" points="35.4,45 35.3,44.9 35.4,45 		"/>
		<polygon class="st1" points="35.3,45.1 35.3,45 35.3,45.1 		"/>
		<path class="st1" d="M32.9,50.9L32.9,50.9C32.9,50.9,32.9,50.9,32.9,50.9z"/>
		<path class="st1" d="M33,50.7L33,50.7C33,50.7,33,50.7,33,50.7z"/>
		<path class="st1" d="M33.8,47.3c-0.1,0-0.2,0-0.1,0L33.8,47.3C33.8,47.4,33.8,47.3,33.8,47.3z"/>
		<path class="st1" d="M33.4,49.2C33.4,49.2,33.4,49.2,33.4,49.2C33.4,49.2,33.3,49.2,33.4,49.2C33.3,49.2,33.3,49.2,33.4,49.2z"/>
		<path class="st1" d="M33.7,49.4L33.7,49.4C33.6,49.4,33.6,49.4,33.7,49.4z"/>
		<path class="st1" d="M32.5,51.8L32.5,51.8C32.6,51.8,32.5,51.8,32.5,51.8z"/>
		<path class="st1" d="M34.7,46C34.7,46,34.7,46,34.7,46C34.7,46,34.8,46.1,34.7,46z"/>
		<path class="st1" d="M32.1,50.3C32.1,50.3,32.1,50.3,32.1,50.3C32.1,50.3,32.1,50.3,32.1,50.3z"/>
		<path class="st1" d="M34.6,46.1C34.6,46.1,34.6,46.1,34.6,46.1C34.6,46.1,34.6,46.1,34.6,46.1C34.6,46,34.5,46.1,34.6,46.1z"/>
		<path class="st1" d="M29.6,51.7C29.6,51.7,29.6,51.7,29.6,51.7C29.6,51.7,29.6,51.7,29.6,51.7z"/>
		<path class="st1" d="M30,50.3C30.1,50.4,30.1,50.4,30,50.3C30.1,50.4,30.1,50.4,30,50.3z"/>
		<path class="st1" d="M35.1,45.4C35.1,45.4,35.1,45.4,35.1,45.4L35.1,45.4z"/>
		<path class="st1" d="M35.4,45.5C35.4,45.5,35.4,45.5,35.4,45.5C35.4,45.5,35.4,45.5,35.4,45.5z"/>
		<path class="st1" d="M34.9,46.6L34.9,46.6C34.9,46.6,34.9,46.6,34.9,46.6z"/>
		<path class="st1" d="M35.1,45.4C35.1,45.4,35.1,45.4,35.1,45.4C35.1,45.4,35.1,45.4,35.1,45.4z"/>
		<path class="st1" d="M35.1,45.4C35.1,45.4,35.1,45.4,35.1,45.4C35.1,45.4,35.1,45.3,35.1,45.4z"/>
		<path class="st1" d="M35,45.4C35.1,45.4,35.1,45.4,35,45.4C35.1,45.4,35.1,45.4,35,45.4C35.1,45.4,35.1,45.4,35,45.4z"/>
		<path class="st1" d="M31.1,53.2C31.1,53.2,31.1,53.2,31.1,53.2C31,53.3,31,53.2,31.1,53.2z"/>
		<polygon class="st1" points="34.3,48.4 34.3,48.4 34.3,48.4 		"/>
		<path class="st1" d="M34.4,48.5c-0.1-0.1-0.1-0.1,0-0.1l-0.2-0.1L34.4,48.5z"/>
		<path class="st1" d="M32.7,51.3l0.1,0c0.1,0.1,0,0.2,0.1,0.2c-0.2-0.2,0.1-0.2-0.1-0.4l0.1,0c0,0,0,0,0,0c0.2,0-0.1-0.2-0.1-0.2
			c0,0,0.1,0,0.1,0l0-0.1c0,0,0.1,0,0,0l0-0.1l0,0c0,0-0.1-0.1-0.1-0.1c0.1,0,0,0,0.1,0l0-0.1c0.1,0,0.1,0.1,0.1,0.1
			c0.3,0.1,0-0.1,0.2-0.1l0,0.1c0.2,0.1,0.1,0,0.3,0c-0.1,0-0.3,0-0.3-0.1c0,0,0.1,0,0-0.1c0.1,0.1,0.1,0,0.1,0l0.1,0.1
			c0-0.1-0.1-0.1-0.1-0.2c0,0,0.1,0,0.2,0c0.1-0.1-0.2,0-0.1-0.1c0.1,0,0.1-0.1,0-0.2c0.1,0,0.1,0.1,0.1,0.1l-0.1-0.1c0,0,0,0,0,0
			c0-0.1-0.1-0.1-0.1-0.1c-0.1-0.1,0.3,0,0.1-0.1c0,0,0.1,0,0.1,0.1c0-0.1,0-0.1-0.1-0.3l0.1,0c-0.1,0-0.2-0.1-0.2-0.2
			c-0.1,0-0.1,0-0.1,0l0-0.1c0,0,0.1,0,0.1,0.1c0,0,0,0,0,0c0.1,0,0.1,0.1,0.2,0.1c0,0-0.1,0-0.1,0c0.1,0.1,0.1,0.1,0.2,0.2
			c0,0,0,0,0,0c0,0,0,0,0,0c0,0,0,0,0-0.1l0.1,0.1l0,0l0.1-0.1c-0.1-0.2-0.2-0.3-0.2-0.5c0.1,0.1,0.2,0.1,0.3,0.2
			c-0.1,0,0,0.1-0.1,0.2c0,0,0.1,0,0.1,0l0-0.2c0.1,0.1,0.1,0,0.1,0c-0.2-0.1-0.1-0.2-0.1-0.2c0.1,0,0.1,0.1,0.1,0.1
			c0.2,0-0.2-0.2,0-0.2c0,0,0,0,0,0c0-0.1,0.1-0.1,0.1-0.1l0,0c0.1-0.1,0.2-0.3,0-0.4c0,0,0.2,0.1,0.2,0.1L33.8,48
			c0.1,0.1,0.5,0.2,0.5,0.4c0,0,0.1,0,0-0.1c0,0-0.2-0.1-0.2-0.1c0.2,0,0.1,0,0.3,0c0,0-0.2-0.1-0.2-0.2c0,0,0.2,0.1,0.2,0.1
			l-0.2-0.2c0,0,0.2,0.1,0.2,0.1c0,0,0-0.1,0-0.1l-0.1,0c0.1-0.1-0.2-0.3-0.2-0.4c0,0,0.2,0.2,0.3,0.2c-0.1-0.1-0.4-0.4-0.5-0.5
			l0.1,0l0-0.1c0.1,0.1,0.4,0.5,0.5,0.6c0.1,0,0.1,0,0.1,0c0.1,0,0.1,0.1,0.1,0.1l0.1-0.1c-0.1-0.1-0.1-0.2-0.2-0.2l0,0.2
			c-0.1-0.1-0.3-0.3-0.2-0.4c0.1,0,0.2,0.2,0.2,0.2c0,0,0-0.1,0-0.1l0,0.1c0.1,0-0.1-0.2,0-0.2c0,0,0.2,0,0.1,0
			c-0.2-0.1-0.6-0.3-0.7-0.4c0,0,0.2,0,0.3,0c0.1,0,0.2,0.2,0.3,0.2c0,0-0.1-0.1-0.1-0.1c0,0,0.1,0.1,0.1,0C35,47,35.1,47,35,47
			c0-0.1,0.1,0,0.1-0.1c-0.1,0-0.2-0.2-0.2-0.3c0,0,0.1,0,0.1,0c0.1-0.1,0.2-0.1,0.2-0.2c0,0,0.1,0,0.1,0c0,0,0-0.1,0-0.1
			c0.1,0,0,0.1,0.1,0.1c-0.1-0.1-0.1-0.1-0.1-0.2c-0.1-0.1-0.1,0.1-0.1,0.1c-0.1-0.1-0.3-0.3-0.3-0.4c0-0.1,0.1,0,0.1,0
			c0.1-0.1-0.2-0.3,0-0.3c0.1,0,0.2,0.1,0.3,0.2c0,0.1-0.1,0-0.1,0.1l0.1,0c0,0,0,0.1,0,0.1c0.1,0,0.2-0.2,0.3-0.3
			c0,0,0-0.1-0.1-0.1l0,0c-0.1,0-0.1-0.1-0.1-0.1c0-0.1-0.1-0.2,0-0.2l0.1,0.1c0,0-0.1,0-0.1,0c0-0.1,0.2,0,0.1-0.1l-0.1,0
			c0-0.1-0.1-0.2,0-0.2c-0.1-0.1,0,0-0.1,0c0.2,0.1-0.1,0.1,0.1,0.2c-0.2-0.1-0.1,0-0.3,0c0,0,0.1,0,0,0.1c0,0,0,0,0,0c0,0,0,0,0,0
			l0,0c0,0,0,0,0,0c0,0,0,0,0.1,0c0.1,0.1,0,0.1,0,0.2c0,0,0,0-0.1-0.1l0,0.1c-0.1-0.1-0.2,0-0.2-0.1l0,0.1c-0.1,0-0.1,0-0.1,0.1
			c0,0,0,0.1,0,0.1l0,0.1l0,0c-0.1,0.1,0,0.3-0.2,0.3c0,0,0,0.1-0.1,0.1l-0.1,0c0,0.1-0.1,0.1-0.1,0.1c-0.2-0.1-0.2,0.2-0.2,0.2
			l0.1,0.1c0,0,0,0.1,0,0.2l0.1,0c0,0.1-0.1,0.1-0.2,0.2c0,0,0,0,0,0c-0.2,0,0,0.3-0.2,0.3c0,0,0,0.1,0,0.1c0,0,0,0,0,0c0,0,0,0,0,0
			c0,0,0,0-0.1,0c0,0,0,0,0.1,0c0,0,0,0.1,0,0.1l-0.1,0c0,0,0,0,0,0c0,0,0,0,0.1,0.1c0,0,0,0,0,0.1c-0.2-0.1,0,0.1-0.2,0
			c0.1,0.1,0,0.2,0.1,0.3c0,0,0,0,0,0c0,0-0.1,0,0,0.1l-0.1-0.1l0.1,0.2c-0.1,0-0.1,0-0.2-0.1c0.1,0.2,0,0.1,0.1,0.3l-0.1,0
			c0,0,0.1,0.1,0,0.1c-0.2,0-0.2,0.3-0.4,0.4c0.2,0.1-0.1,0,0,0.1c-0.1,0-0.1,0-0.1-0.1c0,0.1-0.1,0.1,0,0.2c-0.1,0-0.1-0.1-0.1-0.1
			c0,0,0,0.1,0,0c0,0,0,0-0.1-0.1c0,0.1,0.1,0.2,0.3,0.3c-0.1,0-0.1,0,0,0.1c-0.1,0-0.1,0-0.1-0.1c0,0-0.2,0.1-0.1,0.2
			c0,0,0,0,0,0.1c0,0.1-0.1,0.1-0.1,0.1l0,0c0.1,0.1,0,0.1,0,0.1l0,0c-0.2,0.1,0,0.1-0.2,0.1l0.1,0c0.2,0.1-0.2,0-0.1,0.1l0.1,0
			c0,0.1-0.3-0.1-0.4,0c0,0,0,0,0,0c-0.2,0,0.1,0.1,0.1,0.2c-0.1,0-0.1-0.1-0.2-0.1c-0.1,0,0.1,0.3,0,0.2c0.1,0,0.1,0,0.1,0.1
			c0,0.1-0.3,0-0.1,0.2c0,0,0,0,0,0c0,0.1,0,0.2,0.1,0.2c-0.3-0.2,0,0.3-0.3,0.2l-0.1,0.1l0,0c-0.1,0.1,0,0.1,0,0.2c0,0,0,0-0.1,0
			c-0.1,0.1-0.1,0.1,0,0.3l-0.1,0c0,0.1-0.2,0.1-0.2,0.2c0,0,0,0,0,0c0,0.1-0.1,0.1-0.2,0.2c0,0-0.1,0-0.1,0.1c0,0,0,0.1,0.1,0.1
			c0,0,0,0.1,0,0.1c0.1-0.1,0.1,0.1,0.2,0.1c0,0.1-0.1,0-0.1-0.1l0,0c-0.1-0.2-0.1,0-0.2-0.1c0,0.1-0.1,0.1-0.1,0.1c0,0-0.1,0-0.1,0
			l0,0.2l0,0c0,0,0-0.2,0-0.2c0-0.1,0,0.2,0,0.2c0-0.1,0-0.3,0-0.3l0,0l0,0c0,0.1,0,0.3,0,0.3c0-0.1,0-0.2,0-0.2c0,0,0,0,0,0l0-0.1
			l0,0.2c0,0.1,0-0.1,0,0.2c0-0.2,0-0.3-0.1-0.3c0,0-0.1-0.1-0.1-0.1c-0.1,0.1-0.1,0-0.1,0c0,0-0.1,0.2-0.1,0.1
			c0.2-0.3,0-0.2,0.2-0.4c-0.1,0.1-0.1-0.1-0.2,0.1c0-0.1,0.1-0.1,0.1-0.1c-0.1,0-0.1,0,0-0.1c0,0,0-0.1,0-0.2c0,0-0.1,0.1-0.1,0
			l0.1-0.1c0,0-0.2,0.1-0.1,0c0,0-0.1,0-0.1,0c0-0.2-0.1-0.3-0.1-0.5c-0.1-0.1-0.2-0.3-0.1-0.5c0,0.1-0.1,0.1-0.1,0
			c0,0-0.1,0-0.1,0.1c0,0,0,0,0-0.1c0,0,0-0.1,0-0.1c-0.1,0-0.1-0.1-0.2-0.1l0,0c-0.2,0-0.3,0.3-0.4,0.4c0.1,0,0.1,0,0,0.1
			c0,0.1-0.1,0.1,0.1,0.1c0,0-0.1,0-0.1,0c0.1,0,0.1,0,0.1,0.1l0,0c0.1,0.1,0,0.2,0,0.4l0.1-0.1c0,0,0,0.1,0,0.1
			c0.2,0,0-0.1,0.1-0.1c-0.2,0.1,0.1,0.2-0.1,0.4c0,0.1,0.1-0.1,0.1,0l-0.1,0l0.1,0c0,0-0.1,0.1-0.1,0.1c0,0,0,0,0,0
			c0,0.1,0.1,0.1,0.1,0.2l0-0.1c0,0,0,0.1,0.1,0.1c0,0.1,0,0.1,0.1,0.2c0.1,0.1,0.1,0.3,0.2,0.3l0,0c0.1,0.1,0,0.2,0.1,0.3l0,0
			c0,0,0.1,0,0.1,0.1c-0.1,0,0,0.2-0.1,0.2c0.2,0.1,0.1,0,0.2-0.1l0,0.1c0.1-0.1,0.1-0.1,0.1-0.1c-0.1,0,0,0.2-0.1,0.2
			c0,0.2,0.1,0.2,0.1,0.2c0,0,0.1,0,0.1,0.2c0.1-0.2-0.1-0.3,0-0.3c0-0.1,0.1-0.2,0.1-0.1c0,0,0,0.4,0.1,0.6c0,0,0,0,0,0
			c0,0.1,0,0.1,0.1,0.1c0,0,0-0.1,0.1,0c0-0.2,0.1-0.1,0.1-0.3l-0.1,0.2C31,53.3,31,53,31.1,53c0,0.1,0,0.1,0,0.2c0,0,0-0.1,0.1-0.1
			c0,0.2-0.1,0.2-0.1,0.4c0,0.1,0.1-0.3,0.1,0c0-0.2,0-0.2,0.1-0.2c0,0,0.1,0,0.1-0.2l0,0.1c0,0,0-0.1,0-0.1l0,0.2
			c0-0.2,0.1,0,0.2-0.2c-0.1,0.2-0.1-0.1-0.1-0.1c0.1-0.3,0.2,0.2,0.3-0.1c0,0-0.1,0-0.1,0c0,0,0.1,0,0.1,0c0.1-0.2-0.1-0.1-0.1-0.2
			c0.1,0.1,0-0.1,0-0.2l0.1,0.1c0.2-0.1-0.1-0.2,0-0.3c0,0,0,0,0,0.1c0,0,0,0.1,0,0.1l0-0.1l0.1,0.1c0-0.1,0-0.1,0.1-0.2
			c-0.1,0-0.1-0.1-0.1-0.2c0.1,0,0.1,0.1,0.1,0c0,0.1,0.1,0.1,0,0.1c0,0,0,0.1,0.1,0.1c0.1,0,0.1-0.1,0.1-0.1c0,0,0,0,0,0L32.1,52
			c0,0,0.1,0,0.1,0.1c0,0,0-0.1,0-0.1c0.1,0.1,0.1,0.1,0.1,0.2l0-0.1c0,0,0.1,0,0.1,0c0.1,0,0-0.2,0-0.3c0,0,0,0,0,0
			c0.1-0.1,0.2-0.1,0.1-0.2l0.2,0c0-0.1-0.2,0-0.2-0.2c0-0.1,0.1,0,0.2,0C32.7,51.3,32.6,51.2,32.7,51.3
			C32.7,51.2,32.7,51.2,32.7,51.3z M33.1,50.5C33.1,50.5,33.2,50.6,33.1,50.5C33,50.5,33.1,50.5,33.1,50.5z M33.6,49.2
			C33.6,49.2,33.6,49.2,33.6,49.2C33.5,49.2,33.6,49.2,33.6,49.2z M35,45.7L35,45.7C34.9,45.7,34.9,45.7,35,45.7z M35.1,45.6
			C35.1,45.6,35,45.6,35.1,45.6C35,45.6,35,45.6,35.1,45.6C35,45.6,35.1,45.7,35.1,45.6z M30.9,52.2L30.9,52.2
			C30.9,52.3,30.9,52.3,30.9,52.2z"/>
		<path class="st1" d="M33.6,49.4C33.6,49.4,33.6,49.4,33.6,49.4C33.6,49.4,33.6,49.4,33.6,49.4z"/>
		<path class="st1" d="M32.5,51.8C32.5,51.8,32.5,51.8,32.5,51.8C32.5,51.8,32.5,51.8,32.5,51.8L32.5,51.8z"/>
		<path class="st1" d="M35.1,47.1C35.1,47.1,35.1,47.1,35.1,47.1C35.1,47.1,35.1,47.1,35.1,47.1z"/>
		<path class="st1" d="M35.2,45.2L35.2,45.2C35.2,45.2,35.2,45.2,35.2,45.2C35.2,45.2,35.2,45.2,35.2,45.2z"/>
		<path class="st1" d="M35.9,45.2C35.9,45.2,35.9,45.2,35.9,45.2L35.9,45.2C35.9,45.2,35.9,45.2,35.9,45.2z"/>
		<path class="st1" d="M35.5,45.3C35.5,45.4,35.5,45.3,35.5,45.3C35.5,45.3,35.5,45.3,35.5,45.3C35.4,45.2,35.5,45.3,35.5,45.3z"/>
		<path class="st1" d="M35.5,45.3C35.5,45.3,35.6,45.3,35.5,45.3C35.5,45.2,35.5,45.3,35.5,45.3z"/>
		<path class="st1" d="M35.1,45.5C35.1,45.5,35,45.4,35.1,45.5C34.9,45.4,35.1,45.6,35.1,45.5z"/>
		<polygon class="st1" points="35.7,45.5 35.6,45.4 35.7,45.5 		"/>
		<path class="st1" d="M35.5,45.7L35.5,45.7C35.5,45.6,35.5,45.6,35.5,45.7C35.5,45.6,35.5,45.6,35.5,45.7z"/>
		<path class="st1" d="M35.5,45.6C35.5,45.6,35.5,45.6,35.5,45.6C35.5,45.6,35.5,45.6,35.5,45.6z"/>
		<polygon class="st1" points="35.7,45.6 35.7,45.6 35.6,45.6 		"/>
		<path class="st1" d="M35.1,46.1L35.1,46.1C35.1,46.2,35.2,46.2,35.1,46.1C35.2,46.2,35.2,46.2,35.1,46.1z"/>
		<path class="st1" d="M35.5,46.2C35.4,46.2,35.4,46.1,35.5,46.2L35.5,46.2L35.5,46.2z"/>
		<path class="st1" d="M35.4,46.3C35.4,46.3,35.4,46.5,35.4,46.3C35.4,46.4,35.5,46.3,35.4,46.3z"/>
		<polygon class="st1" points="34.7,47 34.7,47 34.6,46.9 		"/>
		<path class="st1" d="M34.8,48c0.1,0-0.1-0.1,0-0.1c0,0-0.1,0-0.1,0C34.7,47.9,34.6,47.9,34.8,48z"/>
		<path class="st1" d="M34.6,47.8C34.6,47.8,34.6,47.8,34.6,47.8C34.6,47.8,34.6,47.8,34.6,47.8z"/>
		<polygon class="st1" points="30,50.1 30.1,50 30,50.1 		"/>
		<path class="st1" d="M29.9,50.1L30,50L29.9,50.1C29.9,50.1,29.9,50.1,29.9,50.1z"/>
		<path class="st1" d="M33.4,50.5L33.4,50.5C33.4,50.5,33.4,50.5,33.4,50.5L33.4,50.5z"/>
		<polygon class="st1" points="33,51 33,51 32.9,51 		"/>
		<path class="st1" d="M32.9,51.6C32.9,51.5,32.9,51.5,32.9,51.6C32.9,51.5,32.7,51.5,32.9,51.6z"/>
	</g>
	<g>
		<path class="st1" d="M36.9,56.4C36.9,56.3,36.8,56.3,36.9,56.4C36.8,56.3,36.9,56.4,36.9,56.4z"/>
		<polygon class="st1" points="36.8,56.7 36.8,56.7 36.9,56.8 		"/>
		<path class="st1" d="M36.7,57c0.1,0.1,0-0.1,0.1-0.1l0,0l-0.1-0.1C36.7,56.9,36.7,57,36.7,57z"/>
		<path class="st1" d="M36.3,57C36.4,57,36.3,57,36.3,57C36.3,57,36.3,57,36.3,57C36.3,57,36.3,57,36.3,57z"/>
		<path class="st1" d="M36.3,57C36.3,56.9,36.3,56.9,36.3,57L36.3,57z"/>
		<path class="st1" d="M36.3,57.1L36.3,57.1C36.2,57,36.2,57,36.3,57.1C36.2,57.1,36.2,57.1,36.3,57.1z"/>
		<path class="st1" d="M36.3,57.2L36.3,57.2C36.3,57.2,36.3,57.2,36.3,57.2z"/>
		<path class="st1" d="M36.3,57.1L36.3,57.1C36.4,57.2,36.4,57.2,36.3,57.1C36.4,57.2,36.3,57.1,36.3,57.1z"/>
		<path class="st1" d="M36.4,57.1C36.4,57.1,36.4,57.1,36.4,57.1C36.5,57.1,36.4,57,36.4,57.1z"/>
		<path class="st1" d="M36.8,57.1L36.8,57.1L36.8,57.1C36.8,57.1,36.8,57.1,36.8,57.1z"/>
		<path class="st1" d="M36,57.3c0,0,0.1,0,0.1,0.1l0,0C36.1,57.3,36.1,57.3,36,57.3z"/>
		<path class="st1" d="M36.2,57.3L36.2,57.3C36.2,57.4,36.2,57.4,36.2,57.3z"/>
		<polygon class="st1" points="36.5,57.3 36.4,57.2 36.5,57.3 		"/>
		<polygon class="st1" points="35.9,57.4 35.9,57.4 36,57.5 		"/>
		<path class="st1" d="M35.9,57.5c0-0.1-0.1,0-0.1-0.1C35.7,57.5,35.8,57.6,35.9,57.5C35.8,57.6,35.8,57.5,35.9,57.5z"/>
		<path class="st1" d="M35.8,57.7C35.8,57.7,35.8,57.6,35.8,57.7C35.8,57.6,35.8,57.6,35.8,57.7z"/>
		<path class="st1" d="M36.1,57.5C36.1,57.5,36.1,57.4,36.1,57.5L36.1,57.5C36.1,57.5,36.1,57.5,36.1,57.5z"/>
		<path class="st1" d="M36.1,57.5L36.1,57.5C36.1,57.5,36.1,57.5,36.1,57.5C36.1,57.5,36.1,57.5,36.1,57.5z"/>
		<path class="st1" d="M36.1,57.5L36.1,57.5C36.1,57.5,36.1,57.5,36.1,57.5z"/>
		<path class="st1" d="M36.3,57.4c0,0.1,0,0.1,0.1,0.1C36.4,57.4,36.4,57.4,36.3,57.4z"/>
		<path class="st1" d="M36.2,57.5L36.2,57.5C36.3,57.5,36.2,57.5,36.2,57.5L36.2,57.5z"/>
		<polygon class="st1" points="36.2,57.5 36.2,57.5 36.2,57.5 		"/>
		<path class="st1" d="M36,57.7C36,57.7,36,57.7,36,57.7C36,57.7,36,57.7,36,57.7C36,57.7,36,57.6,36,57.7z"/>
		<path class="st1" d="M36,57.6L36,57.6C36,57.6,36,57.6,36,57.6z"/>
		<path class="st1" d="M35.8,58C35.8,58,35.8,58,35.8,58L35.8,58L35.8,58z"/>
		<path class="st1" d="M36,57.7C36.1,57.7,36.1,57.7,36,57.7C36,57.6,36,57.7,36,57.7C36,57.7,36,57.7,36,57.7z"/>
		<path class="st1" d="M35.8,57.8C35.8,57.8,35.9,57.8,35.8,57.8C35.9,57.8,35.8,57.7,35.8,57.8z"/>
		<path class="st1" d="M36,57.6C36,57.6,36,57.6,36,57.6C36,57.6,36,57.6,36,57.6z"/>
		<path class="st1" d="M36,57.6C36,57.6,36,57.6,36,57.6C36,57.6,36,57.6,36,57.6C36,57.6,36,57.6,36,57.6z"/>
		<path class="st1" d="M36.2,58.4c-0.1-0.1-0.1-0.1,0-0.1c0-0.1-0.3-0.2-0.4-0.3c0,0,0.1,0,0.1,0.1c0,0,0.2,0,0.2,0
			c0,0.1-0.1,0-0.1,0C36.1,58.2,36,58.3,36.2,58.4L36.2,58.4C36.2,58.3,36.2,58.4,36.2,58.4z"/>
		<path class="st1" d="M35.9,57.9L35.9,57.9c0,0-0.1,0-0.1,0C35.8,57.9,35.8,57.9,35.9,57.9L35.9,57.9L35.9,57.9z"/>
		<path class="st1" d="M35.9,57.8c0.1,0.1,0.1,0.1,0.2,0.2c0-0.1,0-0.1,0-0.1C36,57.9,36,57.8,35.9,57.8
			C35.9,57.8,35.9,57.8,35.9,57.8C35.9,57.7,35.9,57.8,35.9,57.8L35.9,57.8L35.9,57.8L35.9,57.8C35.9,57.8,35.9,57.8,35.9,57.8
			C35.9,57.8,35.9,57.8,35.9,57.8C35.9,57.8,35.9,57.8,35.9,57.8C35.9,57.8,35.9,57.8,35.9,57.8L35.9,57.8L35.9,57.8L35.9,57.8
			C35.9,57.9,35.9,57.8,35.9,57.8z"/>
		<path class="st1" d="M36.6,57.6C36.6,57.6,36.6,57.6,36.6,57.6C36.6,57.6,36.6,57.7,36.6,57.6z"/>
		<path class="st1" d="M36.5,57.6C36.5,57.6,36.5,57.6,36.5,57.6C36.6,57.6,36.6,57.6,36.5,57.6C36.6,57.6,36.6,57.6,36.5,57.6
			L36.5,57.6c-0.1-0.1-0.2-0.1-0.2-0.1C36.4,57.6,36.4,57.6,36.5,57.6z"/>
		<path class="st1" d="M36.2,57.7L36.2,57.7l0.1,0.1L36.2,57.7C36.3,57.8,36.3,57.8,36.2,57.7z"/>
		<polygon class="st1" points="35.7,57.9 35.7,57.9 35.8,58 		"/>
		<polygon class="st1" points="35.7,58 35.6,58 35.7,58 		"/>
		<path class="st1" d="M33.3,63.9L33.3,63.9C33.3,63.9,33.3,63.9,33.3,63.9z"/>
		<path class="st1" d="M33.4,63.7L33.4,63.7C33.3,63.7,33.4,63.7,33.4,63.7z"/>
		<path class="st1" d="M34.2,60.3c-0.1,0-0.2,0-0.1,0L34.2,60.3C34.1,60.3,34.2,60.3,34.2,60.3z"/>
		<path class="st1" d="M33.7,62.2C33.7,62.2,33.7,62.2,33.7,62.2C33.7,62.2,33.7,62.2,33.7,62.2C33.7,62.2,33.7,62.2,33.7,62.2z"/>
		<path class="st1" d="M34,62.4L34,62.4C34,62.4,34,62.4,34,62.4z"/>
		<path class="st1" d="M32.8,64.8L32.8,64.8C32.9,64.8,32.9,64.8,32.8,64.8z"/>
		<path class="st1" d="M35.1,59C35,59,35,59,35.1,59C35,59,35.1,59,35.1,59z"/>
		<path class="st1" d="M32.5,63.3C32.5,63.3,32.5,63.3,32.5,63.3C32.5,63.3,32.5,63.3,32.5,63.3z"/>
		<path class="st1" d="M34.9,59.1C34.9,59.1,34.9,59.1,34.9,59.1C35,59.1,35,59,34.9,59.1C34.9,59,34.9,59,34.9,59.1z"/>
		<path class="st1" d="M30,64.7C30,64.7,30,64.7,30,64.7C29.9,64.7,29.9,64.7,30,64.7z"/>
		<path class="st1" d="M30.4,63.3C30.4,63.3,30.4,63.4,30.4,63.3C30.4,63.4,30.4,63.3,30.4,63.3z"/>
		<path class="st1" d="M35.4,58.4C35.4,58.4,35.4,58.4,35.4,58.4L35.4,58.4z"/>
		<path class="st1" d="M35.8,58.5C35.8,58.5,35.8,58.5,35.8,58.5C35.8,58.5,35.8,58.5,35.8,58.5z"/>
		<path class="st1" d="M35.3,59.6L35.3,59.6C35.3,59.6,35.3,59.6,35.3,59.6z"/>
		<path class="st1" d="M35.5,58.4C35.4,58.4,35.4,58.4,35.5,58.4C35.4,58.4,35.4,58.4,35.5,58.4z"/>
		<path class="st1" d="M35.4,58.4C35.4,58.4,35.4,58.3,35.4,58.4C35.4,58.3,35.4,58.3,35.4,58.4z"/>
		<path class="st1" d="M35.4,58.4C35.4,58.4,35.4,58.4,35.4,58.4C35.4,58.4,35.4,58.4,35.4,58.4C35.4,58.4,35.4,58.4,35.4,58.4z"/>
		<path class="st1" d="M31.4,66.2C31.4,66.2,31.4,66.2,31.4,66.2C31.4,66.3,31.4,66.2,31.4,66.2z"/>
		<polygon class="st1" points="34.7,61.3 34.7,61.3 34.7,61.3 		"/>
		<path class="st1" d="M34.7,61.4c-0.1-0.1-0.1-0.1,0-0.1l-0.2-0.1L34.7,61.4z"/>
		<path class="st1" d="M33.1,64.3l0.1,0c0.1,0.1,0,0.2,0.1,0.2c-0.2-0.2,0.1-0.2-0.1-0.4l0.1,0c0,0,0,0,0,0c0.2,0-0.1-0.2-0.1-0.2
			c0,0,0.1,0,0.1,0l0-0.1c0,0,0.1,0,0,0l0-0.1l0,0c0,0-0.1-0.1-0.1-0.1c0.1,0,0,0,0.1,0l0-0.1c0.1,0,0.1,0.1,0.1,0.1
			c0.3,0.1,0-0.1,0.2-0.1v0.1c0.2,0.1,0.1,0,0.3,0c-0.1,0-0.3,0-0.3-0.1c0,0,0.1,0,0-0.1c0.1,0.1,0.1,0,0.1,0l0.1,0.1
			c0-0.1-0.1-0.1-0.1-0.2c0,0,0.1,0,0.2,0c0.1-0.1-0.2,0-0.1-0.1c0.1,0,0.1-0.1,0-0.2c0.1,0,0.1,0.1,0.1,0.1l-0.1-0.1c0,0,0,0,0,0
			c0-0.1-0.1-0.1-0.1-0.1c-0.1-0.1,0.3,0,0.1-0.1c0,0,0.1,0.1,0.1,0.1c0-0.1,0-0.1-0.1-0.3l0.1,0c-0.1,0-0.2-0.1-0.2-0.2
			c-0.1,0-0.1,0-0.1,0l0-0.1c0,0,0.1,0,0.1,0.1c0,0,0,0,0,0c0.1,0,0.1,0.1,0.2,0.1c0,0-0.1,0-0.1,0c0.1,0.1,0.1,0.1,0.2,0.2
			c0,0,0,0,0,0c0,0,0,0,0,0c0,0,0,0,0,0l0.1,0.1l0,0l0.1-0.1c-0.1-0.2-0.2-0.3-0.2-0.5c0.1,0.1,0.2,0.1,0.3,0.2
			c-0.1,0,0,0.1-0.1,0.2c0,0,0.1,0,0.1,0l0-0.2c0.1,0.1,0.1,0,0.1,0c-0.2-0.1-0.1-0.2-0.1-0.2c0.1,0,0.1,0.1,0.1,0.1
			c0.2,0-0.2-0.2,0-0.2c0,0,0,0,0,0c0-0.1,0.1-0.1,0.1-0.1l0,0c0.1-0.1,0.2-0.3,0-0.4c0,0,0.2,0.1,0.2,0.1L34.2,61
			c0.1,0.1,0.5,0.2,0.5,0.4c0,0,0.1,0,0-0.1c0,0-0.2-0.1-0.2-0.1c0.2,0,0.1,0,0.3,0c0,0-0.2-0.1-0.2-0.2c0,0,0.2,0.1,0.2,0.1
			l-0.2-0.2c0,0,0.2,0.1,0.2,0.1c0,0,0-0.1,0-0.1l-0.1,0c0.1-0.1-0.2-0.3-0.2-0.4c0,0,0.2,0.2,0.3,0.2c-0.1-0.1-0.4-0.4-0.5-0.5
			l0.1,0l0-0.1c0.1,0.1,0.4,0.5,0.5,0.6c0.1,0,0.1,0,0.1,0c0.1,0,0.1,0.1,0.1,0.1l0.1-0.1c-0.1-0.1-0.1-0.2-0.2-0.2l0,0.2
			c-0.1-0.1-0.3-0.3-0.2-0.4c0.1,0,0.2,0.2,0.2,0.2c0,0,0-0.1,0-0.1l0,0.1c0.1,0-0.1-0.2,0-0.2c0,0,0.2,0,0.1,0
			c-0.2-0.1-0.6-0.3-0.7-0.4c0,0,0.2,0,0.3,0c0.1,0,0.2,0.2,0.3,0.2c0,0-0.1-0.1-0.1-0.1c0,0,0.1,0.1,0.1,0
			c-0.1-0.1,0.1-0.1-0.1-0.1c0-0.1,0.1,0,0.1-0.1c-0.1,0-0.2-0.2-0.2-0.3c0,0,0.1,0,0.1,0c0.1-0.1,0.2-0.1,0.2-0.2c0,0,0.1,0,0.1,0
			c0,0,0-0.1,0-0.1c0.1,0,0,0.1,0.1,0.1c-0.1-0.1-0.1-0.1-0.1-0.2c-0.1-0.1-0.1,0.1-0.1,0.1c-0.1-0.1-0.3-0.3-0.3-0.4
			c0-0.1,0.1,0,0.1,0c0.1-0.1-0.2-0.3,0-0.3c0.1,0,0.2,0.1,0.3,0.2c0,0.1-0.1,0-0.1,0.1l0.1,0c0,0,0,0.1,0,0.1
			c0.1,0,0.2-0.2,0.3-0.3c0,0,0-0.1-0.1-0.1l0,0c-0.1,0-0.1-0.1-0.1-0.1c0-0.1-0.1-0.2,0-0.2l0.1,0.1c0,0-0.1,0-0.1,0
			c0-0.1,0.2,0,0.1-0.1l-0.1,0c0-0.1-0.1-0.2,0-0.2c-0.1-0.1,0,0-0.1,0c0.2,0.1-0.1,0.1,0.1,0.2c-0.2-0.1-0.1,0-0.3,0
			c0,0,0.1,0,0,0.1c0,0,0,0,0,0c0,0,0,0,0,0l0,0c0,0,0,0,0,0c0,0,0,0,0.1,0c0.1,0.1,0,0.1,0,0.2c0,0,0,0-0.1-0.1l0,0.1
			c-0.1-0.1-0.2,0-0.2-0.1l0,0.1c-0.1,0-0.1,0-0.1,0.1c0,0,0,0.1,0,0.1l0,0.1l0,0c-0.1,0.1,0,0.3-0.2,0.3c0,0,0,0.1-0.1,0.1l-0.1,0
			c0,0.1-0.1,0.1-0.1,0.1c-0.2-0.1-0.2,0.2-0.2,0.2l0.1,0.1c0,0,0,0.1,0,0.2l0.1,0c0,0.1-0.1,0.1-0.2,0.2c0,0,0,0,0,0
			c-0.2,0,0,0.3-0.2,0.3c0,0,0,0,0,0.1c0,0,0,0,0,0c0,0,0,0,0,0c0,0,0,0-0.1,0c0,0,0,0,0.1,0c0,0,0,0,0,0.1l-0.1,0c0,0,0,0,0,0
			c0,0,0,0,0.1,0.1c0,0,0,0,0,0.1c-0.2-0.1,0,0.1-0.2,0c0.1,0.1,0,0.2,0.1,0.3c0,0,0,0,0,0c0,0-0.1,0,0,0.1l-0.1-0.1l0.1,0.2
			c-0.1,0-0.1,0-0.2-0.1c0.1,0.2,0,0.1,0.1,0.3l-0.1,0c0,0,0.1,0.1,0,0.1c-0.2,0-0.2,0.3-0.4,0.4c0.2,0.1-0.1,0,0,0.1
			c-0.1,0-0.1,0-0.1-0.1c0,0.1-0.2,0.1,0,0.2c-0.1,0-0.1-0.1-0.1-0.1c0,0,0,0.1,0,0c0,0,0,0-0.1-0.1c0,0.1,0.1,0.2,0.3,0.3
			c-0.1,0-0.1,0,0,0.1c-0.1,0-0.1,0-0.1-0.1c0,0-0.2,0.1-0.1,0.2c0,0,0,0,0,0c0,0.1-0.1,0.1-0.1,0.1l0,0c0.1,0.1,0,0.1,0,0.1l0,0
			c-0.2,0.1,0,0.1-0.2,0.1l0.1,0c0.2,0.1-0.2,0-0.1,0.1l0.1,0c0,0.1-0.3-0.1-0.4,0c0,0,0,0,0,0c-0.2,0,0.1,0.1,0.1,0.2
			c-0.1,0-0.1-0.1-0.2-0.1c-0.1,0,0.1,0.3,0,0.2c0.1,0,0.1,0,0.1,0.1c0,0.1-0.3,0-0.1,0.2c0,0,0,0,0,0c0,0.1,0,0.2,0.1,0.2
			c-0.3-0.2,0,0.3-0.3,0.2l-0.1,0.1l0,0c-0.1,0.1,0,0.1,0,0.2c0,0,0,0-0.1,0c-0.1,0.1-0.1,0.1,0,0.3l-0.1,0c0,0.1-0.2,0.1-0.2,0.2
			c0,0,0,0,0,0c0,0.1-0.1,0.1-0.2,0.2c0,0-0.1,0-0.1,0.1c0,0,0,0.1,0.1,0.1c0,0,0,0.1,0,0.1c0.1-0.1,0.1,0.1,0.2,0.1
			c0,0.1-0.1,0-0.1-0.1l0,0c-0.1-0.2-0.1,0-0.2-0.1c0,0.1-0.1,0.1-0.1,0.1c0,0-0.1,0-0.1,0l0,0.2l0,0c0,0,0-0.2,0-0.2
			c0-0.1,0,0.2,0,0.2c0-0.1,0-0.3,0-0.3l0,0l0,0c0,0.1,0,0.3,0,0.3c0-0.1,0-0.2,0-0.2c0,0,0,0,0,0l0-0.1l0,0.2c0,0.1,0-0.1,0,0.2
			c0-0.2,0-0.3-0.1-0.3c0,0-0.1-0.1-0.1-0.1c-0.1,0.1-0.1,0-0.1,0c0,0-0.1,0.2-0.1,0.1c0.2-0.3,0-0.2,0.2-0.4
			c-0.1,0.1-0.1-0.1-0.2,0.1c0,0,0.1-0.1,0.1-0.1c-0.1,0-0.1,0,0-0.1c0,0,0-0.1,0-0.2c0,0-0.1,0.1-0.1,0l0.1-0.1c0,0-0.2,0.1-0.1,0
			c0,0-0.1,0-0.1,0c0-0.2-0.1-0.3-0.1-0.5c-0.1-0.1-0.2-0.3-0.1-0.5c0,0.1-0.1,0.1-0.1,0c0,0-0.1,0-0.1,0.1c0,0,0,0,0-0.1
			c0,0,0-0.1,0-0.1c-0.1,0-0.1-0.1-0.2-0.1l0,0c-0.2,0-0.3,0.3-0.4,0.4c0.1,0,0.1,0,0,0.1c0,0.1-0.1,0.1,0.1,0.1c0,0-0.1,0-0.1,0
			c0.1,0,0.1,0,0.1,0.1l0,0c0.1,0.1,0,0.2,0,0.4l0.1-0.1c0,0,0,0.1,0,0.1c0.2,0,0-0.1,0.1-0.1c-0.2,0.1,0.1,0.2-0.1,0.4
			c0,0.1,0.1-0.1,0.1,0l-0.1,0l0.1,0c0,0-0.1,0.1-0.1,0.1c0,0,0,0,0,0c-0.1,0.1,0.1,0.1,0.1,0.2l0-0.1c0,0,0,0.1,0.1,0.1
			c0,0.1,0,0.1,0.1,0.2c0.1,0.1,0.1,0.3,0.2,0.3l0,0c0.1,0.1,0,0.2,0.1,0.3l0,0c0,0,0.1,0,0.1,0.1c-0.1,0,0,0.2-0.1,0.2
			c0.1,0.1,0.1,0,0.2-0.1l0,0.1c0.1,0,0.1-0.1,0.1-0.1c-0.1,0,0,0.2-0.1,0.2c0,0.2,0.1,0.2,0.1,0.2c0,0,0.1,0,0.1,0.2
			c0.1-0.2-0.1-0.3,0-0.3c0-0.1,0.1-0.2,0.1-0.1c0,0,0,0.4,0.1,0.6c0,0,0,0,0,0c0,0.1,0,0.1,0.1,0.1c0,0,0-0.1,0.1,0
			c0-0.2,0.1-0.1,0.1-0.3l-0.1,0.2c0.1-0.1,0.1-0.5,0.1-0.4c0,0.1,0,0.1,0,0.2c0,0,0-0.1,0.1-0.1c0,0.2-0.1,0.2-0.1,0.4
			c0,0.1,0.1-0.3,0.1,0c0-0.2,0-0.2,0.1-0.2c0,0,0.1,0,0.1-0.2l0,0.1c0,0,0-0.1,0-0.1l0,0.2c0-0.2,0.1,0,0.2-0.2
			c-0.1,0.2-0.1-0.1-0.1-0.1c0.1-0.3,0.2,0.2,0.3-0.1c0,0-0.1,0-0.1,0c0,0,0.1,0,0.1,0c0.1-0.2-0.1-0.1-0.1-0.2c0.1,0.1,0-0.1,0-0.2
			l0.1,0.1c0.2-0.1-0.1-0.2,0-0.3c0,0,0,0,0,0.1c0,0,0,0.1,0,0.1l0-0.1l0.1,0.1c0-0.1,0-0.1,0.1-0.2c-0.1,0-0.1-0.1-0.1-0.2
			c0.1,0,0.1,0.1,0.1,0c0,0.1,0.1,0.1,0,0.1c0,0,0,0.1,0.1,0.1c0.1,0,0.1-0.1,0.1-0.1c0,0,0,0,0,0L32.4,65c0,0,0.1,0,0.1,0.1
			c0,0,0-0.1,0-0.1c0.1,0.1,0.1,0.1,0.1,0.2l0-0.1c0,0,0.1,0,0.1,0c0.1,0,0-0.2,0-0.3c0,0,0,0,0-0.1c0.1-0.1,0.2-0.1,0.1-0.2l0.2,0
			c0-0.1-0.2,0-0.2-0.2c0-0.1,0.1,0,0.2,0C33,64.3,32.9,64.2,33.1,64.3C33.1,64.2,33.1,64.2,33.1,64.3z M33.5,63.5
			C33.5,63.5,33.5,63.6,33.5,63.5C33.4,63.5,33.4,63.5,33.5,63.5z M33.9,62.2C34,62.2,33.9,62.2,33.9,62.2
			C33.9,62.2,33.9,62.2,33.9,62.2z M35.3,58.6L35.3,58.6C35.3,58.7,35.3,58.7,35.3,58.6z M35.4,58.6C35.4,58.6,35.4,58.6,35.4,58.6
			C35.4,58.6,35.4,58.6,35.4,58.6C35.4,58.6,35.4,58.6,35.4,58.6z M31.3,65.2L31.3,65.2C31.3,65.3,31.3,65.2,31.3,65.2z"/>
		<path class="st1" d="M34,62.4C34,62.4,33.9,62.4,34,62.4C33.9,62.4,34,62.4,34,62.4z"/>
		<path class="st1" d="M32.8,64.8C32.8,64.8,32.8,64.8,32.8,64.8C32.8,64.8,32.8,64.8,32.8,64.8L32.8,64.8z"/>
		<path class="st1" d="M35.4,60.1C35.4,60.1,35.4,60.1,35.4,60.1C35.4,60.1,35.4,60.1,35.4,60.1z"/>
		<path class="st1" d="M35.5,58.2L35.5,58.2C35.5,58.2,35.5,58.2,35.5,58.2C35.5,58.2,35.5,58.2,35.5,58.2z"/>
		<path class="st1" d="M36.3,58.2C36.3,58.2,36.3,58.2,36.3,58.2L36.3,58.2C36.2,58.1,36.2,58.2,36.3,58.2z"/>
		<path class="st1" d="M35.8,58.3C35.9,58.4,35.9,58.3,35.8,58.3C35.9,58.3,35.9,58.3,35.8,58.3C35.8,58.2,35.8,58.3,35.8,58.3z"/>
		<path class="st1" d="M35.9,58.3C35.9,58.3,35.9,58.3,35.9,58.3C35.9,58.2,35.9,58.3,35.9,58.3z"/>
		<path class="st1" d="M35.4,58.5C35.4,58.5,35.3,58.4,35.4,58.5C35.3,58.3,35.4,58.6,35.4,58.5z"/>
		<polygon class="st1" points="36.1,58.5 36,58.4 36,58.5 		"/>
		<path class="st1" d="M35.8,58.6L35.8,58.6C35.9,58.6,35.9,58.6,35.8,58.6C35.8,58.6,35.8,58.6,35.8,58.6z"/>
		<path class="st1" d="M35.9,58.6C35.9,58.6,35.9,58.5,35.9,58.6C35.9,58.5,35.9,58.6,35.9,58.6z"/>
		<polygon class="st1" points="36,58.5 36,58.5 36,58.6 		"/>
		<path class="st1" d="M35.5,59.1L35.5,59.1C35.5,59.2,35.5,59.2,35.5,59.1C35.5,59.2,35.5,59.1,35.5,59.1z"/>
		<path class="st1" d="M35.8,59.1C35.8,59.1,35.8,59.1,35.8,59.1L35.8,59.1L35.8,59.1z"/>
		<path class="st1" d="M35.7,59.3C35.8,59.3,35.8,59.4,35.7,59.3C35.8,59.3,35.8,59.3,35.7,59.3z"/>
		<polygon class="st1" points="35.1,60 35.1,60 34.9,59.9 		"/>
		<path class="st1" d="M35.1,61c0.1,0-0.1-0.1,0-0.1c0,0-0.1,0-0.1,0C35,60.9,35,60.9,35.1,61z"/>
		<path class="st1" d="M35,60.8C35,60.8,35,60.8,35,60.8C35,60.8,35,60.8,35,60.8z"/>
		<polygon class="st1" points="30.4,63.1 30.4,63 30.4,63.1 		"/>
		<path class="st1" d="M30.2,63.1l0.1-0.1L30.2,63.1C30.2,63.1,30.2,63.1,30.2,63.1z"/>
		<path class="st1" d="M33.8,63.5L33.8,63.5C33.7,63.5,33.7,63.5,33.8,63.5L33.8,63.5z"/>
		<polygon class="st1" points="33.3,64 33.4,64 33.2,63.9 		"/>
		<path class="st1" d="M33.2,64.5C33.2,64.5,33.2,64.5,33.2,64.5C33.2,64.5,33.1,64.5,33.2,64.5z"/>
	</g>
	<rect x="31.4" y="33.1" class="st6" width="37.9" height="6.9"/>
	<g>
		<path class="st1" d="M50,100C22.4,100,0,77.6,0,50C0,22.4,22.4,0,50,0s50,22.4,50,50C100,77.6,77.6,100,50,100z M50,3.4
			C24.3,3.4,3.4,24.3,3.4,50c0,25.7,20.9,46.6,46.6,46.6S96.6,75.7,96.6,50C96.6,24.3,75.7,3.4,50,3.4z"/>
	</g>
</g>
</svg>
