<?xml version="1.0" encoding="utf-8"?>
<!-- Generator: Adobe Illustrator 20.1.0, SVG Export Plug-In . SVG Version: 6.00 Build 0)  -->
<svg version="1.1" id="Camada_1" xmlns="http://www.w3.org/2000/svg" xmlns:xlink="http://www.w3.org/1999/xlink" x="0px" y="0px"
	 viewBox="0 0 1924.6 507.4" style="enable-background:new 0 0 1924.6 507.4;" xml:space="preserve">
<style type="text/css">
	.st0{fill:#313437;}
	.st1{fill:#E94849;}
</style>
<g>
	<g>
		<path class="st0" d="M76.3,199h14v215.6h109.1v13.1H76.3V199z"/>
		<path class="st0" d="M366,348.6h-97l-29.4,79h-15L310.2,199h15l85.6,228.6h-15L366,348.6z M317.4,215.3c0,0-4.9,17.6-8.5,27.4
			l-34.9,92.8h87.2l-34.6-92.8c-3.6-9.8-8.5-27.4-8.5-27.4H317.4z"/>
		<path class="st0" d="M451.9,199H465l130.3,179.3c7.5,10.4,18.6,28.7,18.6,28.7h0.7c0,0-1.6-17.3-1.6-28.7V199h14v228.6h-13.1
			L483.6,248.3c-7.5-10.5-18.6-28.7-18.6-28.7h-0.7c0,0,1.6,17.3,1.6,28.7v179.3h-14V199z"/>
		<path class="st0" d="M795.5,195c54.2,0,81.7,28.7,81.7,28.7l-8.5,10.5c0,0-27.1-25.8-72.8-25.8c-56.2,0-99,44.1-99,103.2
			c0,59.4,42.5,106.5,99.9,106.5c49,0,77.4-31,77.4-31l8.8,9.8c0,0-30.7,34.6-86.2,34.6c-66.6,0-114.6-53.6-114.6-119.9
			S731.1,195,795.5,195z"/>
		<path class="st0" d="M937.2,199h125.1V212h-111v93.7h91.1v13.1h-91.1v95.7h117.3v13.1H937.2V199z"/>
		<path class="st0" d="M1214.8,199h13.7l66.6,143.7c5.2,11.1,11.1,25.8,11.1,25.8h0.7c0,0,5.9-14.7,11.1-25.8l66.6-143.7h13.7
			l18.3,228.6h-14l-14-174.4c-1-11.1-1-30.4-1-30.4h-0.7c0,0-6.5,19.3-11.8,30.4l-61.4,130.3h-14.4l-61.1-130.3
			c-4.9-10.8-12.1-31-12.1-31h-0.7c0,0,0,19.9-1,31l-14,174.4h-14L1214.8,199z"/>
		<path class="st0" d="M1480.6,199h125.1V212h-111v93.7h91.1v13.1h-91.1v95.7h117.3v13.1h-131.3V199z"/>
	</g>
	<circle class="st1" cx="1132.4" cy="406.7" r="20.9"/>
	<path class="st1" d="M1473,43.7c11.1-34.6,58.9-22.3,84.9-17.6c48.8,8.8,97.3,19.6,145.3,31.9c37.3,9.5,78.7,18.3,110,42.2
		c39.9,30.5,38.2,85.2,31.3,129.7c-7.7,49.7-16.8,99.3-27.5,148.4c-4.1,19-8.2,38.3-14.5,56.7c-4.9,14.5-12.5,48.3-31.1,51.8
		c-28.5,5.3-30.6-31.3-31.3-50.9c-2.1-60.8,14-122.1,6.8-182.8c-2.2-19.1-7.8-39.1-17.4-55.8c-15.5-27.1-43.9-44.7-71.5-57.6
		c-32-15-66.1-24.8-99.7-35.6c-16.8-5.4-33.5-10.8-49.8-17.5c-12.8-5.3-29.9-11.6-35.8-25.2C1470.3,55.7,1470.2,49.2,1473,43.7z"/>
</g>
</svg>
