<?xml version="1.0" encoding="utf-8"?>
<!-- Generator: Adobe Illustrator 20.1.0, SVG Export Plug-In . SVG Version: 6.00 Build 0)  -->
<svg version="1.1" id="Camada_1" xmlns="http://www.w3.org/2000/svg" xmlns:xlink="http://www.w3.org/1999/xlink" x="0px" y="0px"
	 viewBox="0 0 100 100" style="enable-background:new 0 0 100 100;" xml:space="preserve">
<style type="text/css">
	.st0{fill:#E94849;}
	.st1{fill:#C43E3D;}
	.st2{fill:#555454;}
	.st3{fill:#343433;}
	.st4{fill:#DDDDDD;}
	.st5{fill:#B4B5B5;}
	.st6{fill:#FFFFFF;}
	.st7{fill:none;}
</style>
<g>
	<path class="st0" d="M98.3,49.9C98.3,23.2,76.7,1.6,50,1.6C23.3,1.6,1.7,23.2,1.7,49.9c0,3,0.3,5.9,0.8,8.7h95
		C98,55.8,98.3,52.9,98.3,49.9z"/>
	<path class="st1" d="M40.6,73H67c6.7-4.3,11.2-11.9,11.2-20.5c0-13.5-10.9-24.4-24.4-24.4c-13.5,0-24.4,10.9-24.4,24.4
		C29.4,61.1,33.9,68.7,40.6,73z"/>
	<path class="st2" d="M50,98.2c23.7,0,43.4-17.1,47.5-39.6h-95C6.6,81.1,26.3,98.2,50,98.2z"/>
	<path class="st3" d="M79.1,69.2c0,1.3-1.1,2.4-2.4,2.4H24.5c-1.3,0-2.4-1.1-2.4-2.4l0,0c0-1.3,1.1-2.4,2.4-2.4h52.2
		C78.1,66.8,79.1,67.9,79.1,69.2L79.1,69.2z"/>
	<path class="st4" d="M37.4,71.5h26.4C70.6,67.2,75,59.7,75,51.1c0-13.5-10.9-24.4-24.4-24.4c-13.5,0-24.4,10.9-24.4,24.4
		C26.3,59.7,30.7,67.2,37.4,71.5z"/>
	<path class="st5" d="M50.7,35.5c8.6,0,15.6,7,15.6,15.6c0,8.6-7,15.6-15.6,15.6c-8.6,0-15.6-7-15.6-15.6
		C35.1,42.5,42.1,35.5,50.7,35.5L50.7,35.5z M50.7,31.6c-10.8,0-19.5,8.7-19.5,19.5c0,10.8,8.7,19.5,19.5,19.5
		c10.8,0,19.5-8.7,19.5-19.5C70.1,40.3,61.4,31.6,50.7,31.6L50.7,31.6z"/>
	<g>
		<g>
			<path class="st5" d="M47.9,53.8c0.1,0.1,0.2,0.2,0.4,0.4c0.2,0.1,0.4,0.3,0.6,0.4c0.3,0.2,0.6,0.4,1,0.5c0.3,0.1,0.6,0.2,1,0.2
				c0.3,0,0.6,0,0.8-0.1c0.2-0.1,0.4-0.2,0.5-0.3c0.1-0.1,0.2-0.3,0.3-0.4c0.1-0.2,0.1-0.3,0.1-0.5c0-0.2-0.1-0.4-0.2-0.5
				c-0.1-0.2-0.3-0.3-0.5-0.4c-0.2-0.1-0.4-0.2-0.7-0.3c-0.2-0.1-0.4-0.2-0.6-0.2c-0.8-0.3-1.4-0.6-2-0.9c-0.6-0.3-1-0.6-1.4-1
				c-0.4-0.4-0.7-0.8-0.9-1.2c-0.2-0.5-0.3-1-0.3-1.5c0-0.5,0.1-0.9,0.2-1.3c0.2-0.4,0.4-0.8,0.7-1.1c0.3-0.3,0.7-0.6,1.1-0.8
				c0.4-0.2,0.9-0.4,1.5-0.5v-1.3c0-0.1,0-0.2,0.1-0.3c0.1-0.1,0.2-0.1,0.3-0.1h1.8c0.1,0,0.2,0,0.3,0.1c0.1,0.1,0.2,0.2,0.2,0.3
				v1.3c0.4,0.1,0.7,0.2,1,0.3c0.3,0.1,0.7,0.3,1,0.5c0.2,0.1,0.4,0.3,0.6,0.4c0.2,0.1,0.4,0.3,0.5,0.4c0.1,0.1,0.3,0.2,0.3,0.4
				c0.1,0.1,0.1,0.2,0.1,0.3c0,0.1,0,0.2-0.1,0.2c0,0.1-0.1,0.1-0.2,0.2l-1.5,1.5c-0.1,0.1-0.2,0.2-0.3,0.2c-0.1,0-0.2,0-0.2-0.1
				c-0.1-0.1-0.2-0.1-0.2-0.2l-0.1-0.1c-0.1-0.1-0.3-0.2-0.4-0.3c-0.2-0.1-0.3-0.2-0.5-0.3c-0.2-0.1-0.4-0.2-0.6-0.2
				c-0.2-0.1-0.4-0.1-0.6-0.1c-0.2,0-0.4,0-0.6,0.1c-0.2,0-0.3,0.1-0.5,0.2c-0.1,0.1-0.3,0.2-0.3,0.3c-0.1,0.1-0.1,0.3-0.1,0.5
				c0,0.2,0,0.3,0.1,0.5c0.1,0.1,0.2,0.3,0.4,0.4c0.2,0.1,0.4,0.2,0.7,0.3c0.3,0.1,0.6,0.2,0.9,0.3c0.7,0.2,1.3,0.5,1.9,0.7
				c0.6,0.2,1.1,0.5,1.5,0.9c0.4,0.3,0.7,0.7,1,1.2c0.2,0.5,0.3,1,0.3,1.7c0,0.6-0.1,1.1-0.3,1.6c-0.2,0.5-0.5,0.9-0.9,1.3
				c-0.4,0.4-0.8,0.7-1.3,1c-0.5,0.3-1.1,0.4-1.7,0.5v1.4c0,0.3-0.2,0.4-0.5,0.4h-1.8c-0.3,0-0.4-0.1-0.4-0.4v-1.4
				c-0.5-0.1-1-0.3-1.5-0.5c-0.5-0.2-0.9-0.5-1.3-0.8c-0.3-0.2-0.5-0.4-0.6-0.5c-0.2-0.2-0.3-0.3-0.4-0.4l0,0c0,0,0,0,0,0
				c0,0,0,0,0,0c0,0,0,0,0,0c0,0,0,0,0,0c-0.1-0.2-0.2-0.3-0.2-0.4c0-0.1,0.1-0.2,0.2-0.4l1.6-1.6c0.1-0.1,0.2-0.1,0.3-0.1
				c0.1,0,0.1,0,0.2,0.1C47.8,53.7,47.8,53.8,47.9,53.8z"/>
		</g>
	</g>
	<g>
		<path class="st6" d="M23.6,25.3c1.1,1.5,2.4,2.7,3.5,4.1c0.5,0.7,1.3,1,2.1,0.6c0.7-0.4,1.1-1.4,0.6-2.1c-1.1-1.5-2.4-2.7-3.5-4.1
			c-0.5-0.7-1.3-1-2.1-0.6C23.5,23.6,23.1,24.6,23.6,25.3L23.6,25.3z"/>
	</g>
	<g>
		<path class="st6" d="M18.7,34.4c1.7,0.7,3.5,1,5.1,1.7c0.8,0.3,1.7,0.2,2.1-0.6c0.4-0.7,0.2-1.8-0.6-2.1c-1.7-0.7-3.5-1-5.1-1.7
			c-0.8-0.3-1.7-0.2-2.1,0.6C17.7,33,17.9,34.1,18.7,34.4L18.7,34.4z"/>
	</g>
	<g>
		<path class="st6" d="M32.2,19.8c0.3,1.8,1,3.5,1.3,5.3c0.1,0.8,0.7,1.5,1.7,1.4c0.8-0.1,1.6-0.8,1.4-1.7c-0.3-1.8-1-3.5-1.3-5.3
			c-0.1-0.8-0.7-1.5-1.7-1.4C32.9,18.2,32.1,18.9,32.2,19.8L32.2,19.8z"/>
	</g>
	<circle class="st7" cx="50" cy="50" r="44.6"/>
	<g>
		<path class="st0" d="M50,100C22.4,100,0,77.6,0,50S22.4,0,50,0s50,22.4,50,50S77.6,100,50,100z M50,3.4C24.3,3.4,3.4,24.3,3.4,50
			S24.3,96.6,50,96.6S96.6,75.7,96.6,50S75.7,3.4,50,3.4z"/>
	</g>
</g>
</svg>
