<?xml version="1.0" encoding="utf-8"?>
<!-- Generator: Adobe Illustrator 20.1.0, SVG Export Plug-In . SVG Version: 6.00 Build 0)  -->
<svg version="1.1" id="Camada_1" xmlns="http://www.w3.org/2000/svg" xmlns:xlink="http://www.w3.org/1999/xlink" x="0px" y="0px"
	 viewBox="0 0 100 100" style="enable-background:new 0 0 100 100;" xml:space="preserve">
<style type="text/css">
	.st0{fill:#E94849;}
	.st1{fill:none;}
	.st2{fill-rule:evenodd;clip-rule:evenodd;fill:#C43E3D;}
	.st3{fill:#555454;}
	.st4{fill-rule:evenodd;clip-rule:evenodd;fill:#343433;}
	.st5{fill-rule:evenodd;clip-rule:evenodd;fill:#FFFFFF;}
</style>
<g>
	<path class="st0" d="M98.3,49.9C98.3,23.2,76.7,1.6,50,1.6C23.3,1.6,1.7,23.2,1.7,49.9c0,4.8,0.7,9.3,2,13.7h92.6
		C97.6,59.3,98.3,54.7,98.3,49.9z"/>
	<circle class="st1" cx="50" cy="50" r="44.6"/>
	<polygon class="st2" points="75.7,38.2 92,64.4 74,67.3 	"/>
	<path class="st3" d="M50,98.2c21.9,0,40.4-14.6,46.3-34.6H3.7C9.6,83.6,28.1,98.2,50,98.2z"/>
	<path class="st4" d="M75,69.3c0,2.9-2.3,5.2-5.2,5.2H32.6c-2.9,0-5.2-2.3-5.2-5.2"/>
	<path class="st5" d="M31.5,34.6h9.1v-3c0-1.7,0.7-3.2,1.8-4.3c1.1-1.1,2.6-1.8,4.3-1.8h9.1c1.7,0,3.2,0.7,4.3,1.8
		c1.1,1.1,1.8,2.6,1.8,4.3v3h9.1c3,0,5.5,2.5,5.5,5.5v25.5c0,3-2.5,5.5-5.5,5.5H31.5c-3,0-5.5-2.5-5.5-5.5V40.1
		C26,37.1,28.5,34.6,31.5,34.6L31.5,34.6z M50.1,46.8c-1.1,0.4-3.9,0.3-4.4,3.4c-0.7,4.2,3.7,4.8,5.7,5.8c2.7,1.3,1.4,3.7-5.7,0.7
		v3.5c0.7,0.2,1.3,0.5,2.1,0.7l2.4,0.3l0,1.9l2.2,0l0.1-2c0.3-0.1,1-0.2,1.4-0.3c3.8-1.2,3.9-5.8,0.7-7.5c-1.7-0.9-4.7-1.5-4.7-2.6
		c0-1,2.1-0.8,2.8-0.7l2.8,0.9l1.2-3l-4.2-1l-0.1-1.4l-2.1,0L50.1,46.8L50.1,46.8z M44.8,34.6h12.8v-3c0-0.5-0.2-1-0.5-1.3
		c-0.3-0.3-0.8-0.5-1.3-0.5h-9.1c-0.5,0-1,0.2-1.3,0.5c-0.3,0.3-0.5,0.8-0.5,1.3V34.6L44.8,34.6z"/>
	<g>
		<path class="st0" d="M50,100C22.4,100,0,77.6,0,50S22.4,0,50,0s50,22.4,50,50S77.6,100,50,100z M50,3.4C24.3,3.4,3.4,24.3,3.4,50
			S24.3,96.6,50,96.6S96.6,75.7,96.6,50S75.7,3.4,50,3.4z"/>
	</g>
</g>
</svg>
