<?xml version="1.0" encoding="UTF-8" standalone="no"?>
<!-- Generator: Adobe Illustrator 20.1.0, SVG Export Plug-In . SVG Version: 6.00 Build 0)  -->

<svg
   xmlns:dc="http://purl.org/dc/elements/1.1/"
   xmlns:cc="http://creativecommons.org/ns#"
   xmlns:rdf="http://www.w3.org/1999/02/22-rdf-syntax-ns#"
   xmlns:svg="http://www.w3.org/2000/svg"
   xmlns="http://www.w3.org/2000/svg"
   xmlns:sodipodi="http://sodipodi.sourceforge.net/DTD/sodipodi-0.dtd"
   xmlns:inkscape="http://www.inkscape.org/namespaces/inkscape"
   version="1.1"
   id="Camada_1"
   x="0px"
   y="0px"
   viewBox="0 0 100 100"
   style="enable-background:new 0 0 100 100;"
   xml:space="preserve"
   inkscape:version="0.91 r13725"
   sodipodi:docname="Lance_Icone_ASS.svg"
   inkscape:export-filename="/home/evarildo/Lance.me/Material/icones/Lance_Icone_ASS.svg.pg"
   inkscape:export-xdpi="90"
   inkscape:export-ydpi="90"><metadata
     id="metadata4559"><rdf:RDF><cc:Work
         rdf:about=""><dc:format>image/svg+xml</dc:format><dc:type
           rdf:resource="http://purl.org/dc/dcmitype/StillImage" /><dc:title></dc:title></cc:Work></rdf:RDF></metadata><defs
     id="defs4557" /><sodipodi:namedview
     pagecolor="#ffffff"
     bordercolor="#666666"
     borderopacity="1"
     objecttolerance="10"
     gridtolerance="10"
     guidetolerance="10"
     inkscape:pageopacity="0"
     inkscape:pageshadow="2"
     inkscape:window-width="1366"
     inkscape:window-height="744"
     id="namedview4555"
     showgrid="false"
     inkscape:zoom="2.36"
     inkscape:cx="-64.137956"
     inkscape:cy="89.639575"
     inkscape:window-x="0"
     inkscape:window-y="24"
     inkscape:window-maximized="1"
     inkscape:current-layer="Camada_1" /><style
     type="text/css"
     id="style4515">
	.st0{fill:#E94849;}
	.st1{fill:#C43E3D;}
	.st2{fill:#555454;}
	.st3{fill:#343433;}
	.st4{fill:#DDDDDD;}
	.st5{fill:#B4B5B5;}
	.st6{fill:#FFFFFF;}
	.st7{fill:none;}
</style><path
     style="fill:#e94849"
     inkscape:connector-curvature="0"
     id="path4519"
     d="M 98.3,49.9 C 98.3,23.2 76.7,1.6 50,1.6 23.3,1.6 1.7,23.2 1.7,49.9 c 0,3 4.7491526,22.849153 9.274576,30.733899 L 92.415254,73.00678 C 91.644068,76.350847 98.3,52.9 98.3,49.9 Z"
     class="st0"
     sodipodi:nodetypes="sssccs" /><circle
     style="fill:none"
     id="circle4549"
     r="44.599998"
     cy="50"
     cx="50"
     class="st7" /><path
     inkscape:connector-curvature="0"
     id="path98"
     style="fill:#231f20;fill-opacity:1;fill-rule:nonzero;stroke:none"
     d="m 60.31702,66.211604 c -0.09309,0.06895 -0.146103,0.117008 -0.16054,0.129943 0.05451,-0.04182 0.109258,-0.08512 0.16054,-0.129943" /><path
     style="fill:#c43e3d"
     inkscape:connector-curvature="0"
     id="path5938"
     d="M 71.962602,9.1577156 10.839494,77.774402 C 26.120191,95.601881 49.018658,98.952646 49.018658,98.952646 74.786109,95.357188 89.342933,87.449481 98.631203,52.243956 Z"
     class="st0"
     sodipodi:nodetypes="ccccc" /><path
     inkscape:connector-curvature="0"
     id="path18"
     style="fill:#ffffff;fill-opacity:1;fill-rule:nonzero;stroke:none"
     d="M 72.143552,9.4055823 C 58.454522,-1.8427386 34.317733,-2.7769712 11.086805,20.809893 l 0.04806,57.159995 61.240916,-0.102873"
     sodipodi:nodetypes="cccc" /><path
     inkscape:connector-curvature="0"
     id="path26"
     style="fill:#555454;fill-opacity:1;fill-rule:nonzero;stroke:none"
     d="m 20.066831,15.636244 44.470608,0 0,-1.740098 -44.470608,0 0,1.740098 z" /><path
     inkscape:connector-curvature="0"
     id="path80"
     style="fill:#555454;fill-opacity:1;fill-rule:nonzero;stroke:none"
     d="m 90.622099,23.365402 -1.784735,3.384288 -6.106472,9.250017 0.403575,0.266984 0.146072,0.09647 3.994742,2.636606 0.549647,0.363451 1.941618,-2.941707 4.600305,-6.970746"
     sodipodi:nodetypes="ccccccccc" /><path
     inkscape:connector-curvature="0"
     id="path30"
     style="fill:#555454;fill-opacity:1;fill-rule:nonzero;stroke:none"
     d="m 20.389305,12.286418 41.848617,0 0,-1.740352 -41.848617,0 0,1.740352 z" /><path
     class="st0"
     d="M 50,100 C 22.4,100 0,77.6 0,50 0,22.4 22.4,0 50,0 c 27.6,0 50,22.4 50,50 0,27.6 -22.4,50 -50,50 z M 50,3.4 C 24.3,3.4 3.4,24.3 3.4,50 3.4,75.7 24.3,96.6 50,96.6 75.7,96.6 96.6,75.7 96.6,50 96.6,24.3 75.7,3.4 50,3.4 Z"
     id="path4553"
     inkscape:connector-curvature="0"
     style="fill:#e94849" /><path
     inkscape:connector-curvature="0"
     id="path74"
     style="fill:#bcbbbb;fill-opacity:1;fill-rule:nonzero;stroke:none"
     d="m 66.009139,62.529481 c 0,0 0.983642,1.753757 0.191125,3.832757 l 2.667371,-4.039021 0.200454,0.132237 -2.623932,3.977043 c 0.680315,-0.639814 1.852799,-1.378043 3.645343,-1.39881 l 2.405942,-3.643916 -3.994539,-2.636675 -2.491764,3.776385" /><path
     inkscape:connector-curvature="0"
     id="path92"
     style="fill:#4c4c4c;fill-opacity:1;fill-rule:nonzero;stroke:none"
     d="m 68.500903,58.753096 3.994539,2.636675 0.960079,-1.452788 -3.994743,-2.636606 -0.959875,1.452719" /><path
     inkscape:connector-curvature="0"
     id="path96"
     style="fill:#e94849;fill-opacity:1;fill-rule:nonzero;stroke:none"
     d="m 65.689781,67.354789 c 0.0095,-0.01687 0.04439,-0.07936 0.110532,-0.174474 -0.03425,0.05888 -0.07225,0.117424 -0.110532,0.174474 z m 3.177854,-5.031572 -2.667371,4.039021 -0.614304,0.930945 0.202639,0.133318 0.655558,-0.994004 2.623932,-3.977043 -0.200454,-0.132237" /><path
     inkscape:connector-curvature="0"
     id="path88"
     style="fill:#bcbbbb;fill-opacity:1;fill-rule:nonzero;stroke:none"
     d="m 72.294724,53.007002 -2.833946,4.293375 3.994743,2.636606 7.164087,-10.854468 6.655673,-10.082783 -3.994742,-2.636606 -10.985815,16.643876" /><path
     inkscape:connector-curvature="0"
     id="path56"
     style="fill:#555454;fill-opacity:1;fill-rule:nonzero;stroke:none"
     d="m 20.395007,18.989089 25.025047,0 0,-1.743131 -25.025047,0 0,1.743131 z" /><path
     inkscape:connector-curvature="0"
     id="path24"
     style="fill:#555454;fill-opacity:1;fill-rule:nonzero;stroke:none"
     d="m 20.211697,25.688954 44.325742,0 0,-1.740352 -44.325742,0 0,1.740352 z" /><path
     inkscape:connector-curvature="0"
     id="path28"
     style="fill:#555454;fill-opacity:1;fill-rule:nonzero;stroke:none"
     d="m 20.211697,39.088684 43.378217,0 0,-1.740097 -43.378217,0 0,1.740097 z" /><path
     inkscape:connector-curvature="0"
     id="path32"
     style="fill:#555454;fill-opacity:1;fill-rule:nonzero;stroke:none"
     d="m 20.211697,45.788549 40.45558,0 0,-1.740097 -40.45558,0 0,1.740097 z" /><path
     inkscape:connector-curvature="0"
     id="path34"
     style="fill:#555454;fill-opacity:1;fill-rule:nonzero;stroke:none"
     d="m 20.211697,29.038994 39.987449,0 0,-1.740352 -39.987449,0 0,1.740352 z" /><path
     inkscape:connector-curvature="0"
     id="path38"
     style="fill:#555454;fill-opacity:1;fill-rule:nonzero;stroke:none"
     d="m 20.211697,52.488415 37.943876,0 0,-1.740098 -37.943876,0 0,1.740098 z" /><path
     inkscape:connector-curvature="0"
     id="path42"
     style="fill:#555454;fill-opacity:1;fill-rule:nonzero;stroke:none"
     d="m 20.211697,55.838461 35.539626,0 0,-1.740352 -35.539626,0 0,1.740352 z" /><path
     inkscape:connector-curvature="0"
     id="path44"
     style="fill:#555454;fill-opacity:1;fill-rule:nonzero;stroke:none"
     d="m 20.211697,35.738859 35.539626,0 0,-1.740352 -35.539626,0 0,1.740352 z" /><path
     inkscape:connector-curvature="0"
     id="path52"
     style="fill:#555454;fill-opacity:1;fill-rule:nonzero;stroke:none"
     d="m 20.211697,49.138589 29.308545,0 0,-1.740345 -29.308545,0 0,1.740345 z" /><path
     inkscape:connector-curvature="0"
     id="path54"
     style="fill:#555454;fill-opacity:1;fill-rule:nonzero;stroke:none"
     d="m 20.211697,32.388819 28.949953,0 0,-1.740351 -28.949953,0 0,1.740351 z" /><path
     inkscape:connector-curvature="0"
     id="path22"
     style="fill:#e94849;fill-opacity:1;fill-rule:nonzero;stroke:none"
     d="m 66.263527,66.265906 c -1.501765,-0.06527 -3.003531,-0.127784 -4.50529,-0.193083 -0.971013,-0.04269 -2.390457,0.19007 -3.199633,-0.394563 -0.621692,-0.451458 -0.547776,-0.755303 -1.371176,-0.360732 -0.502526,0.241352 -0.993634,0.783742 -1.552833,0.633116 0.173254,-0.851626 0.343495,-1.706052 0.513729,-2.560698 0.02004,-0.102144 0.01423,-0.229928 0,-0.368923 0,-0.315262 0,-0.63031 0,-0.945359 -0.783528,1.396603 -1.618125,2.764979 -2.520827,4.087885 -0.244151,0.357719 -1.984463,2.989521 -2.47837,2.223015 0.269578,-1.283255 0.860244,-2.495399 1.351346,-3.704738 0.675573,-1.657997 1.34834,-3.315994 2.021321,-4.973991 0.05665,-0.138995 0.03407,-0.334877 0,-0.539377 0,-0.258375 0,-0.516536 0,-0.774911 -2.529445,3.642246 -5.056092,7.287512 -7.585758,10.932564 -0.207299,0.301045 0.201702,1.02488 0,1.314501 2.095232,-3.017754 4.187443,-6.038301 6.282674,-9.05627 -0.491108,1.20374 -0.979411,2.407474 -1.462115,3.616819 -0.377541,0.945365 -0.647333,1.845475 -0.721036,2.824885 -0.006,-0.03988 -0.01142,-0.08231 -0.01423,-0.127784 0,0.127784 0,0.258375 0,0.385945 0,0.03127 -0.0027,0.06247 -0.0027,0.09654 -0.0027,0.07952 -0.0053,0.159038 -0.0053,0.238553 0.0027,0.2073 -0.05692,0.698408 0.02819,0.882873 0.434435,0.936954 1.243391,-0.156018 1.564258,-0.579028 1.15827,-1.521808 2.183151,-3.154164 3.137135,-4.814961 -0.116581,0.579242 -0.232948,1.155471 -0.349315,1.734713 -0.0027,0.01704 -0.0084,0.04824 -0.01122,0.08792 -0.03427,0.303845 -0.07392,1.172494 0.01122,1.226368 0.667169,0.420212 1.212359,-0.255361 1.794193,-0.525154 0.797752,-0.369136 0.7637,-0.08232 1.371175,0.360518 0.783529,0.567818 2.268485,0.354913 3.199627,0.394564 1.501766,0.06527 3.003531,0.13059 4.50529,0.193083 -0.0084,0 0.02846,-1.311489 0,-1.314288" /></svg>