<?xml version="1.0" encoding="UTF-8" standalone="no"?>
<!-- Generator: Adobe Illustrator 20.1.0, SVG Export Plug-In . SVG Version: 6.00 Build 0)  -->

<svg
   xmlns:dc="http://purl.org/dc/elements/1.1/"
   xmlns:cc="http://creativecommons.org/ns#"
   xmlns:rdf="http://www.w3.org/1999/02/22-rdf-syntax-ns#"
   xmlns:svg="http://www.w3.org/2000/svg"
   xmlns="http://www.w3.org/2000/svg"
   xmlns:sodipodi="http://sodipodi.sourceforge.net/DTD/sodipodi-0.dtd"
   xmlns:inkscape="http://www.inkscape.org/namespaces/inkscape"
   version="1.1"
   id="Camada_1"
   x="0px"
   y="0px"
   viewBox="0 0 100 100"
   style="enable-background:new 0 0 100 100;"
   xml:space="preserve"
   inkscape:version="0.91 r13725"
   sodipodi:docname="Lance_Icone_6.svg"><metadata
     id="metadata5708"><rdf:RDF><cc:Work
         rdf:about=""><dc:format>image/svg+xml</dc:format><dc:type
           rdf:resource="http://purl.org/dc/dcmitype/StillImage" /><dc:title></dc:title></cc:Work></rdf:RDF></metadata><defs
     id="defs5706" /><sodipodi:namedview
     pagecolor="#ffffff"
     bordercolor="#666666"
     borderopacity="1"
     objecttolerance="10"
     gridtolerance="10"
     guidetolerance="10"
     inkscape:pageopacity="0"
     inkscape:pageshadow="2"
     inkscape:window-width="1366"
     inkscape:window-height="744"
     id="namedview5704"
     showgrid="false"
     inkscape:zoom="1.668772"
     inkscape:cx="6.4898403"
     inkscape:cy="61.727031"
     inkscape:window-x="0"
     inkscape:window-y="24"
     inkscape:window-maximized="1"
     inkscape:current-layer="Camada_1" /><style
     type="text/css"
     id="style5664">
	.st0{fill:#E94849;}
	.st1{fill:#C43E3D;}
	.st2{fill:#555454;}
	.st3{fill:#343433;}
	.st4{fill:#DDDDDD;}
	.st5{fill:#B4B5B5;}
	.st6{fill:#FFFFFF;}
	.st7{fill:none;}
</style><path
     style="fill:#e94849"
     inkscape:connector-curvature="0"
     id="path5668"
     d="M 98.3,49.9 C 98.3,23.2 76.7,1.6 50,1.6 23.3,1.6 1.7,23.2 1.7,49.9 c 0,3 0.3,5.9 0.8,8.7 l 95,0 c 0.5,-2.8 0.8,-5.7 0.8,-8.7 z"
     class="st0" /><path
     style="fill:#555454"
     inkscape:connector-curvature="0"
     id="path5672"
     d="m 50,98.2 c 23.7,0 43.4,-17.1 47.5,-39.6 l -95,0 C 6.6,81.1 26.3,98.2 50,98.2 Z"
     class="st2" /><circle
     style="fill:none"
     id="circle5698"
     r="44.599998"
     cy="50"
     cx="50"
     class="st7" /><g
     id="g5700"><path
       style="fill:#e94849"
       inkscape:connector-curvature="0"
       id="path5702"
       d="M 50,100 C 22.4,100 0,77.6 0,50 0,22.4 22.4,0 50,0 c 27.6,0 50,22.4 50,50 0,27.6 -22.4,50 -50,50 z M 50,3.4 C 24.3,3.4 3.4,24.3 3.4,50 3.4,75.7 24.3,96.6 50,96.6 75.7,96.6 96.6,75.7 96.6,50 96.6,24.3 75.7,3.4 50,3.4 Z"
       class="st0" /></g><path
     inkscape:connector-curvature="0"
     class="st3"
     d="m 78.5,72.881356 c 0,1.3 -1.1,2.4 -2.4,2.4 l -52.2,0 c -1.3,0 -2.4,-1.1 -2.4,-2.4 l 0,0 c 0,-1.3 1.1,-2.4 2.4,-2.4 l 52.2,0 c 1.4,0 2.4,1.1 2.4,2.4 l 0,0 z"
     id="path6412"
     style="fill:#343433" /><g
     style="font-style:normal;font-variant:normal;font-weight:normal;font-stretch:normal;font-size:78.85493469px;line-height:125%;font-family:STIXIntegralsUp;-inkscape-font-specification:STIXIntegralsUp;letter-spacing:0px;word-spacing:0px;fill:#000000;fill-opacity:1;stroke:none;stroke-width:1px;stroke-linecap:butt;stroke-linejoin:miter;stroke-opacity:1"
     id="text6308"><path
       d="m 54.157195,24.454593 c 0,-2.050228 -0.07886,-2.602212 -0.551985,-3.311907 -0.709694,-1.182824 -1.971373,-1.892518 -3.311907,-1.892518 -1.261679,0 -2.444503,0.630839 -3.233052,1.577098 -0.551985,0.867405 -0.709695,1.498244 -0.709695,3.627327 l 0,2.050229 c -6.781524,1.182824 -11.433965,6.22954 -11.433965,12.380224 0,6.38725 4.179311,10.645417 11.98595,12.222515 l 5.835265,1.182824 c 4.415876,0.867405 6.308395,2.365648 6.308395,5.125571 0,3.390762 -3.785037,5.992975 -8.910608,5.992975 -4.337021,0 -8.516333,-1.971373 -9.147172,-4.415876 -0.63084,-2.129083 -0.63084,-2.129083 -1.182824,-2.759923 -0.709695,-0.630839 -1.813664,-1.103969 -2.838778,-1.103969 -1.261679,0 -2.444503,0.630839 -3.233052,1.655954 -0.551985,0.788549 -0.709695,1.498243 -0.709695,3.627327 l 0,4.810151 c 0,1.971373 0.15771,2.681067 0.551985,3.390762 0.788549,1.182824 2.050228,1.892518 3.469617,1.892518 1.103969,0 1.813663,-0.315419 3.075342,-1.419389 2.523358,1.10397 2.917633,1.261679 6.22954,1.971374 l 0.05297,4.201209 c 4.273561,-0.01738 5.359341,0.0075 7.833122,0 l -0.07945,-4.201209 c 8.200913,-1.577099 13.089919,-6.70267 13.089919,-13.563049 0,-3.390762 -1.182824,-6.466105 -3.311907,-8.595188 -2.050229,-2.050228 -4.889006,-3.311907 -9.778012,-4.337021 l -5.125571,-1.103969 c -4.021602,-0.78855 -5.91412,-2.286793 -5.91412,-4.415877 0,-2.917632 3.075342,-4.889006 7.806638,-4.889006 3.233053,0 6.38725,1.340534 6.623815,2.838778 0.47313,2.129083 1.971373,3.311907 4.100456,3.311907 1.261679,0 2.444503,-0.551984 3.233053,-1.655953 0.551984,-0.709695 0.709694,-1.498244 0.709694,-3.548472 l 0,-2.523358 c 0,-0.709695 0,-1.025114 -0.07886,-1.655954 -0.236565,-2.129083 -1.734808,-3.548472 -3.863892,-3.548472 -0.709694,0 -1.340533,0.15771 -2.207938,0.551985 -0.315419,-0.07886 -0.630839,-0.15771 -0.709694,-0.236565 l -1.103969,-0.394275 c -0.709695,-0.236565 -1.182824,-0.394275 -1.577099,-0.47313 -0.630839,-0.157709 -1.025114,-0.157709 -1.892518,-0.315419 z"
       style="font-style:normal;font-variant:normal;font-weight:bold;font-stretch:normal;font-family:'Nimbus Mono L';-inkscape-font-specification:'Nimbus Mono L Bold';fill:#ffffff;fill-opacity:1"
       id="path7007"
       inkscape:connector-curvature="0"
       sodipodi:nodetypes="scscscsccssccscsscscccccssccsscscsscscccccs" /></g></svg>