<?xml version="1.0" encoding="UTF-8" standalone="no"?>
<!-- Generator: Adobe Illustrator 20.1.0, SVG Export Plug-In . SVG Version: 6.00 Build 0)  -->

<svg
   xmlns:dc="http://purl.org/dc/elements/1.1/"
   xmlns:cc="http://creativecommons.org/ns#"
   xmlns:rdf="http://www.w3.org/1999/02/22-rdf-syntax-ns#"
   xmlns:svg="http://www.w3.org/2000/svg"
   xmlns="http://www.w3.org/2000/svg"
   xmlns:sodipodi="http://sodipodi.sourceforge.net/DTD/sodipodi-0.dtd"
   xmlns:inkscape="http://www.inkscape.org/namespaces/inkscape"
   version="1.1"
   id="Camada_1"
   x="0px"
   y="0px"
   viewBox="0 0 100 100"
   style="enable-background:new 0 0 100 100;"
   xml:space="preserve"
   inkscape:version="0.91 r13725"
   sodipodi:docname="Lance_Icone_5.svg"><metadata
     id="metadata4226"><rdf:RDF><cc:Work
         rdf:about=""><dc:format>image/svg+xml</dc:format><dc:type
           rdf:resource="http://purl.org/dc/dcmitype/StillImage" /><dc:title></dc:title></cc:Work></rdf:RDF></metadata><defs
     id="defs4224"><clipPath
       clipPathUnits="userSpaceOnUse"
       id="clipPath264"><path
         d="M 0,800 800,800 800,0 0,0 0,800 Z"
         id="path266"
         inkscape:connector-curvature="0" /></clipPath><clipPath
       clipPathUnits="userSpaceOnUse"
       id="clipPath276"><path
         d="m 369.68,652.661 27.704,0 0,-26.826 -27.704,0 0,26.826 z"
         id="path278"
         inkscape:connector-curvature="0" /></clipPath><clipPath
       clipPathUnits="userSpaceOnUse"
       id="clipPath296"><path
         d="m 351.161,654.457 55.298,0 0,-8.837 -55.298,0 0,8.837 z"
         id="path298"
         inkscape:connector-curvature="0" /></clipPath></defs><sodipodi:namedview
     pagecolor="#ffffff"
     bordercolor="#666666"
     borderopacity="1"
     objecttolerance="10"
     gridtolerance="10"
     guidetolerance="10"
     inkscape:pageopacity="0"
     inkscape:pageshadow="2"
     inkscape:window-width="1366"
     inkscape:window-height="744"
     id="namedview4222"
     showgrid="false"
     inkscape:zoom="2.865"
     inkscape:cx="11.548289"
     inkscape:cy="79.121468"
     inkscape:window-x="0"
     inkscape:window-y="24"
     inkscape:window-maximized="1"
     inkscape:current-layer="Camada_1" /><style
     type="text/css"
     id="style4202">
	.st0{fill:#E94849;}
	.st1{fill:none;}
	.st2{fill-rule:evenodd;clip-rule:evenodd;fill:#C43E3D;}
	.st3{fill:#555454;}
	.st4{fill-rule:evenodd;clip-rule:evenodd;fill:#343433;}
	.st5{fill-rule:evenodd;clip-rule:evenodd;fill:#FFFFFF;}
</style><path
     style="fill:#e94849"
     inkscape:connector-curvature="0"
     id="path4206"
     d="M 98.3,49.9 C 98.3,23.2 76.7,1.6 50,1.6 23.3,1.6 1.7,23.2 1.7,49.9 c 0,4.8 0.7,9.3 2,13.7 l 92.6,0 c 1.3,-4.3 2,-8.9 2,-13.7 z"
     class="st0" /><circle
     style="fill:none"
     id="circle4208"
     r="44.599998"
     cy="50"
     cx="50"
     class="st1" /><g
     id="g308"
     transform="matrix(0.63420916,0.16160407,0.16160407,-0.63420916,66.988225,100.10537)"><path
       d="M 0.41892425,11.045051 C 0.44016345,6.7971043 -27.245201,-6.4245032 -31.482136,-6.1180908 l -36.225673,2.6198173 c -4.236934,0.3064123 -8.809569,2.4687951 -8.81939,6.7167837 L -76.739,94.832 c -0.0098,4.247989 3.444,7.691 7.692,7.691 l 61.356,0 c 4.248,0 7.6697608,-3.443053 7.691,-7.691 z"
       style="fill:#555454;fill-opacity:1;fill-rule:nonzero;stroke:none"
       id="path310"
       inkscape:connector-curvature="0"
       sodipodi:nodetypes="sssssssss" /></g><path
     d="M 38.291811,97.98759 26.133689,92.37621 43.037059,24.541394 56.155041,27.884012 Z"
     style="fill:#ffffff;fill-opacity:1;fill-rule:nonzero;stroke:none"
     id="path312"
     inkscape:connector-curvature="0"
     sodipodi:nodetypes="ccccc" /><g
     id="g314"
     transform="matrix(0.63420916,0.16160407,0.16160407,-0.63420916,75.569999,49.415661)"><path
       d="m 0,0 c 0,-8.195 -6.643,-14.839 -14.837,-14.839 -8.195,0 -14.839,6.644 -14.839,14.839 0,8.195 6.644,14.838 14.839,14.838 C -6.643,14.838 0,8.195 0,0"
       style="fill:#ffffff;fill-opacity:1;fill-rule:nonzero;stroke:none"
       id="path316"
       inkscape:connector-curvature="0" /></g><g
     id="g318"
     transform="matrix(0.63420916,0.16160407,0.16160407,-0.63420916,66.350785,46.270416)"><path
       d="m 0,0 c -8.195,0 -14.839,-6.644 -14.839,-14.838 0,-8.195 6.644,-14.838 14.839,-14.838 8.194,0 14.837,6.643 14.837,14.838 C 14.837,-6.644 8.194,0 0,0 m 0,-3.38 c 6.317,0 11.456,-5.141 11.456,-11.458 0,-6.317 -5.139,-11.457 -11.456,-11.457 -6.318,0 -11.459,5.14 -11.459,11.457 0,6.317 5.141,11.458 11.459,11.458"
       style="fill:#ffffff;fill-opacity:1;fill-rule:nonzero;stroke:none"
       id="path320"
       inkscape:connector-curvature="0" /></g><path
     class="st0"
     d="M 50,100 C 22.4,100 0,77.6 0,50 0,22.4 22.4,0 50,0 c 27.6,0 50,22.4 50,50 0,27.6 -22.4,50 -50,50 z M 50,3.4 C 24.3,3.4 3.4,24.3 3.4,50 3.4,75.7 24.3,96.6 50,96.6 75.7,96.6 96.6,75.7 96.6,50 96.6,24.3 75.7,3.4 50,3.4 Z"
     id="path4220"
     inkscape:connector-curvature="0"
     style="fill:#e94849" /></svg>